<svg width="50" height="56" viewBox="0 0 50 56" fill="none" xmlns="http://www.w3.org/2000/svg">
<g clip-path="url(#clip0_665_246)">
<path d="M43.1809 18.6914C42.9171 18.6914 42.7042 18.4752 42.7042 18.2073V15.4347C42.7042 7.45914 36.3172 0.9683 28.4653 0.9683C20.6133 0.9683 14.2231 7.45914 14.2231 15.4347V18.2073C14.2231 18.4752 14.0102 18.6914 13.7465 18.6914C13.4827 18.6914 13.2698 18.4752 13.2698 18.2073V15.4347C13.2698 6.92334 20.089 0 28.4653 0C36.8415 0 43.6575 6.92334 43.6575 15.4347V18.2073C43.6575 18.4752 43.4446 18.6914 43.1809 18.6914ZM38.2778 18.6914C38.014 18.6914 37.8011 18.4752 37.8011 18.2073V15.4347C37.8011 10.2027 33.613 5.94859 28.4653 5.94859C23.3175 5.94859 19.1262 10.2027 19.1262 15.4347V18.2073C19.1262 18.4752 18.9133 18.6914 18.6496 18.6914C18.3858 18.6914 18.1729 18.4752 18.1729 18.2073V15.4347C18.1729 9.67009 22.79 4.98029 28.4653 4.98029C34.1405 4.98029 38.7544 9.67009 38.7544 15.4347V18.2073C38.7544 18.4752 38.5415 18.6914 38.2778 18.6914Z" fill="url(#paint0_linear_665_246)"/>
<path d="M28.4652 55.3547C16.9844 55.3547 7.56592 45.8879 7.56592 34.1263V19.505C7.56592 18.8078 8.15378 18.2107 8.84015 18.2107H48.087C48.7734 18.2107 49.3613 18.8078 49.3613 19.505V34.2264C49.3613 45.8879 39.9428 55.3547 28.462 55.3547H28.4652Z" fill="url(#paint1_linear_665_246)" stroke="#424DE2" stroke-width="1.5" stroke-miterlimit="10"/>
<path d="M34.8968 23.7461H0.397278" stroke="#4200E2" stroke-linecap="round" stroke-linejoin="round" stroke-dasharray="3 3"/>
<path d="M39.6155 21.4741H39.587C38.3585 21.4741 37.3626 22.4857 37.3626 23.7335V23.7625C37.3626 25.0104 38.3585 26.0219 39.587 26.0219H39.6155C40.844 26.0219 41.8399 25.0104 41.8399 23.7625V23.7335C41.8399 22.4857 40.844 21.4741 39.6155 21.4741Z" fill="#424DE2"/>
<path d="M37.3212 37.254L37.0098 32.2285C37.0098 32.0962 36.8764 31.9606 36.7429 31.9606C35.5036 31.9606 34.3057 30.7147 34.2167 29.2913C34.2167 29.159 34.0832 29.0234 33.9498 29.0234H22.9647C22.8313 29.0234 22.6978 29.1558 22.6978 29.2913C22.6088 30.7147 21.4585 31.9606 20.1716 31.9606C20.0381 31.9606 19.9047 32.0929 19.9047 32.2285L19.5933 37.254C19.4598 38.8097 19.7267 40.3687 20.3463 41.7469C20.966 43.1703 21.986 44.371 23.2253 45.3038L28.2745 48.9962C28.3635 49.0866 28.497 49.0866 28.5859 48.9962L33.6797 45.3038C36.2504 43.435 37.6231 40.3655 37.3117 37.254H37.3212Z" fill="#00003C"/>
<path d="M28.4652 33.1096C26.2313 33.1096 24.4741 34.8945 24.4741 37.1603C24.4741 39.0647 25.7102 40.6269 27.4261 41.0787V43.2413C27.4261 43.8061 27.9059 44.2935 28.4652 44.2935C29.0245 44.2935 29.5011 43.8061 29.5011 43.2413V41.082C31.217 40.6269 32.4531 39.0647 32.4531 37.1603C32.4531 34.8945 30.6959 33.1096 28.4652 33.1096Z" fill="url(#paint2_linear_665_246)"/>
</g>
<defs>
<linearGradient id="paint0_linear_665_246" x1="28.4653" y1="0.19366" x2="28.4653" y2="54.2732" gradientUnits="userSpaceOnUse">
<stop stop-color="#AEE0FC"/>
<stop offset="0.5" stop-color="#BFD8FA"/>
<stop offset="1" stop-color="#E4D9FB"/>
</linearGradient>
<linearGradient id="paint1_linear_665_246" x1="28.4652" y1="-0.50977" x2="28.4652" y2="54.0991" gradientUnits="userSpaceOnUse">
<stop stop-color="#AEE0FC"/>
<stop offset="0.5" stop-color="#BFD8FA"/>
<stop offset="1" stop-color="#E4D9FB"/>
</linearGradient>
<linearGradient id="paint2_linear_665_246" x1="28.4652" y1="0.184203" x2="28.4652" y2="55.1546" gradientUnits="userSpaceOnUse">
<stop stop-color="#AEE0FC"/>
<stop offset="0.5" stop-color="#BFD8FA"/>
<stop offset="1" stop-color="#E4D9FB"/>
</linearGradient>
<clipPath id="clip0_665_246">
<rect width="50" height="56" fill="white"/>
</clipPath>
</defs>
</svg>
