<svg width="20" height="20" viewBox="0 0 20 20" fill="none" xmlns="http://www.w3.org/2000/svg">
<rect width="20" height="20" rx="3" fill="#C8C3DC"/>
<path d="M2.91666 7.83398H6.16667V16.5007H2.91666V7.83398Z" fill="#000044"/>
<path d="M13.6386 7.83626C12.463 7.83626 11.7608 8.28473 11.0168 9.26591V8.114H8.33331V16.5007H11.0366V11.9545C11.0366 10.9938 11.5121 10.0559 12.5841 10.0559C13.6562 10.0559 14.2968 10.9938 14.2968 11.934V16.5007H17V11.7405C17 8.43271 14.8339 7.83398 13.6363 7.83398L13.6386 7.83626Z" fill="#000044"/>
<path d="M4.54166 3.5C3.63463 3.5 2.91666 4.23088 2.91666 5.125C2.91666 6.01913 3.63463 6.75001 4.54166 6.75001C5.44869 6.75001 6.16667 6.01913 6.16667 5.125C6.16667 4.23088 5.44869 3.5 4.54166 3.5Z" fill="#000044"/>
</svg>
