<?xml version="1.0" encoding="utf-8"?>
<!-- Generator: Adobe Illustrator 22.0.1, SVG Export Plug-In . SVG Version: 6.00 Build 0)  -->
<svg version="1.1" id="Layer_1" xmlns="http://www.w3.org/2000/svg" xmlns:xlink="http://www.w3.org/1999/xlink" x="0px" y="0px"
	 viewBox="0 0 2362.2 1417.2" style="enable-background:new 0 0 2362.2 1417.2;" xml:space="preserve">
<style type="text/css">
	.st0{fill:#FFFFFF;}
	.st1{fill:#00004D;stroke:#000000;stroke-miterlimit:10;}
	.st2{fill:#E8EBF0;}
	.st3{fill:#C4C4C4;}
	.st4{fill:#101111;}
	.st5{fill:#00004D;}
	.st6{fill:#7F8081;}
	.st7{fill:#101111;stroke:#474E5E;stroke-width:1.0002;}
	.st8{fill:#BCBCBC;}
	.st9{fill:#808080;}
</style>
<g>
	<path d="M441.6,112.4c-10,0-18,8-18,18v521.2H262.2c-8.6,0-15.5,6.9-15.5,15.5v565.8c0,8.6,6.9,15.5,15.5,15.5h342.4v46
		c0,5.8,4.7,10.5,10.5,10.5h205.7c5.8,0,10.5-4.7,10.5-10.5v-194.5H1237v94.9h-85.1l-9.7,2.5v37.9c0,0,10.3,11.3,16.1,11.3h941.1
		c5.8,0,16.1-11.3,16.1-11.3v-37.9l-9.7-2.5h-85.1v-467c0-11.9-9.2-21.5-20.5-21.5h-341V130.4c0-10-8-18-18-18L441.6,112.4
		L441.6,112.4z M831.3,963.8h74.5c-0.2,3.5-0.4,8.2-0.7,13.6c-1.3,21.9-4.1,55.6-9.6,64.6c-6.5,10.7-47.2,34.6-64.3,44.4
		L831.3,963.8L831.3,963.8z M1176.9,963.8h60v114.1c-19.3-11.5-44.7-27.7-49.8-35.9c-5.5-8.9-8.3-42.6-9.6-64.6
		C1177.3,972,1177.1,967.3,1176.9,963.8L1176.9,963.8z"/>
	<rect x="440.9" y="140.9" class="st0" width="1200.5" height="803.3"/>
	<g transform="translate(-162.34 -72.839)">
		<rect x="660" y="787.6" class="st1" width="337.4" height="172.7"/>
		<rect x="662.9" y="461.6" class="st1" width="1078" height="286.7"/>
		<rect x="1412.5" y="787.6" class="st1" width="325.5" height="172.7"/>
		<rect x="660" y="270.5" class="st1" width="445" height="149.3"/>
		<rect x="1146.7" y="270.5" class="st1" width="594.3" height="149.3"/>
		<rect x="1033.2" y="787.6" class="st1" width="337.4" height="172.7"/>
	</g>
	<g transform="translate(-281.79 -96.728)">
		<path class="st2" d="M1190.1,1042.6l-2.3,12c0,0-2.3,70.6-10.5,84.1c-8.3,13.5-72.1,48.8-72.1,48.8v9H1541v-9
			c0,0-63.8-35.3-72.1-48.8c-8.3-13.5-10.5-84.1-10.5-84.1l-2.3-12l-133.1,2.6L1190.1,1042.6L1190.1,1042.6z"/>
		<path class="st3" d="M1190.1,1042.6l-2.3,12c0,0-0.3,8.3-0.9,19.5h272.5c-0.7-11.2-0.9-19.5-0.9-19.5l-2.3-12l-133.1,2.6
			L1190.1,1042.6L1190.1,1042.6z"/>
		<path class="st4" d="M723.4,209.1c-10,0-18,8-18,18v815.4c0,10,8,18,18,18h1199.7c10,0,18-8,18-18V227.2c0-10-8-18-18-18
			L723.4,209.1L723.4,209.1z M744.4,254.7H1902V1015H744.4V254.7L744.4,254.7z"/>
	</g>
	<rect x="264.7" y="690.4" class="st0" width="424" height="522.6"/>
	<g transform="translate(-162.34 -72.839)">
		<rect x="466.1" y="958.5" class="st5" width="351.1" height="190.4"/>
		<rect x="466.1" y="805.9" class="st5" width="351.1" height="58.1"/>
		<rect x="466.1" y="881.5" class="st5" width="351.1" height="58.1"/>
		<rect x="465.9" y="1163.1" class="st5" width="110" height="99.6"/>
		<rect x="711.3" y="1163.1" class="st5" width="106.2" height="99.6"/>
		<rect x="587.6" y="1163.1" class="st5" width="110" height="99.6"/>
	</g>
	<g transform="translate(-1344.9 10.776)">
		<path image-rendering="auto" color-rendering="auto" shape-rendering="auto" class="st6" d="M1607.1,640.8
			c-8.6,0-15.5,6.9-15.5,15.5v565.8c0,8.6,6.9,15.5,15.5,15.5h440.1c8.6,0,15.5-6.9,15.5-15.5V656.3c0-8.6-6.9-15.5-15.5-15.5
			H1607.1z M1607.1,641.8h440.1c8.1,0,14.5,6.4,14.5,14.5v565.8c0,8-6.5,14.5-14.5,14.5h-440.1c-8.1,0-14.5-6.4-14.5-14.5V656.3
			C1592.6,648.3,1599,641.8,1607.1,641.8z"/>
	</g>
	<g transform="translate(-162.34 -72.839)">
		<path class="st7" d="M424.6,725c-8.3,0-15,6.7-15,15v565.8c0,8.3,6.7,15,15,15h440.1c8.3,0,15-6.7,15-15V739.9c0-8.3-6.7-15-15-15
			L424.6,725L424.6,725z M449.3,787.6h390.8v472.2H449.3V787.6L449.3,787.6z"/>
		<circle class="st5" cx="644.7" cy="1289.9" r="19.4"/>
	</g>
	<rect x="614.1" y="951.7" class="st0" width="208.3" height="313.5"/>
	<g transform="matrix(.47996 0 0 .7112 410.49 402.11)">
		<rect x="466.1" y="958.5" class="st5" width="351.1" height="190.4"/>
		<rect x="466.1" y="805.9" class="st5" width="351.1" height="58.1"/>
		<rect x="466.1" y="881.5" class="st5" width="351.1" height="58.1"/>
		<path class="st8" d="M465.9,1163.1v82.8h351.6v-82.8H465.9z"/>
	</g>
	<g transform="translate(-1372.1 -13.768)">
		<path image-rendering="auto" color-rendering="auto" shape-rendering="auto" class="st6" d="M1987.3,942.6
			c-5.8,0-10.5,4.7-10.5,10.5V1308c0,5.8,4.7,10.5,10.5,10.5h205.6c5.8,0,10.5-4.7,10.5-10.5V953.1c0-5.8-4.7-10.5-10.5-10.5H1987.3
			L1987.3,942.6z M1987.3,943.6h205.6c5.3,0,9.5,4.2,9.5,9.5V1308c0,5.3-4.2,9.5-9.5,9.5h-205.7c-5.3,0-9.5-4.2-9.5-9.5V953.1
			C1977.8,947.8,1982,943.6,1987.3,943.6L1987.3,943.6z"/>
		<path class="st4" d="M1987.3,943.1c-5.5,0-10,4.5-10,10V1308c0,5.5,4.5,10,10,10h205.6c5.5,0,10-4.5,10-10V953.1
			c0-5.5-4.5-10-10-10H1987.3L1987.3,943.1z M1994.6,975.6h191v294.1h-191L1994.6,975.6L1994.6,975.6z"/>
		<circle class="st5" cx="2090.1" cy="1293.9" r="12.8"/>
	</g>
	<rect x="1259.1" y="726.2" class="st0" width="740.6" height="486.7"/>
	<g transform="matrix(.60173 0 0 .60173 907.04 605.26)">
		<rect x="660" y="787.6" class="st5" width="337.4" height="172.7"/>
		<rect x="662.9" y="461.6" class="st5" width="1078" height="286.7"/>
		<rect x="1412.5" y="787.6" class="st5" width="325.5" height="172.7"/>
		<rect x="660" y="270.5" class="st5" width="445" height="149.3"/>
		<rect x="1146.7" y="270.5" class="st5" width="594.3" height="149.3"/>
		<rect x="1033.2" y="787.6" class="st5" width="337.4" height="172.7"/>
	</g>
	<g transform="translate(996.31 4.8032)">
		<path class="st4" d="M261.1,701.9c-11.1,0-20,8.9-20,20v484.4c0,11.1,8.9,20,20,20h742.8c11.1,0,20-8.9,20-20V721.9
			c0-11.1-8.9-20-20-20H261.1L261.1,701.9z M274.9,735.6h715.3v471.6H274.9V735.6L274.9,735.6z"/>
		<path image-rendering="auto" color-rendering="auto" shape-rendering="auto" class="st9" d="M261.1,701.4
			c-11.3,0-20.5,9.6-20.5,21.5v483.3c0,11.9,9.1,21.5,20.5,21.5h742.8c11.3,0,20.5-9.6,20.5-21.5V722.9c0-11.9-9.2-21.5-20.5-21.5
			H261.1L261.1,701.4z M261.1,702.4h742.8c10.8,0,19.5,9.1,19.5,20.4v483.3c0,11.3-8.7,20.4-19.5,20.4H261.2
			c-10.8,0-19.5-9.1-19.5-20.4V722.9C241.7,711.5,250.3,702.4,261.1,702.4L261.1,702.4z"/>
	</g>
	<g transform="translate(-162.34 -72.839)">
		<path class="st2" d="M1314.3,1267.4l-9.7,2.5v37.9c0,0,10.3,11.3,16.1,11.3h941.1c5.8,0,16.1-11.3,16.1-11.3V1270l-9.7-2.5
			L1314.3,1267.4L1314.3,1267.4z"/>
		<path class="st5" d="M1757.4,1267.5l9.2,9.2h62l9.2-9.2H1757.4L1757.4,1267.5z"/>
	</g>
</g>
</svg>
