<?xml version="1.0" encoding="utf-8"?>
<!-- Generator: Adobe Illustrator 22.0.1, SVG Export Plug-In . SVG Version: 6.00 Build 0)  -->
<svg version="1.1" id="Layer_1" xmlns="http://www.w3.org/2000/svg" xmlns:xlink="http://www.w3.org/1999/xlink" x="0px" y="0px"
	 viewBox="0 0 1800 1029" style="enable-background:new 0 0 1800 1029;" xml:space="preserve">
<style type="text/css">
	.st0{fill:#00004D;}
	.st1{fill:#00004D;stroke:#FFFFFF;stroke-width:6;stroke-miterlimit:10;}
	.st2{fill:#FFFFFF;}
	.st3{font-family:'MyriadPro-Regular';}
	.st4{font-size:100px;}
	.st5{letter-spacing:-1;}
	.st6{fill:#101111;}
	.st7{fill:#101111;stroke:#FFFFFF;stroke-width:6;stroke-miterlimit:10;}
</style>
<title>Asset 1</title>
<g id="Layer_2_1_">
	<g id="Design">
		<rect class="st0" width="598" height="341"/>
		<path class="st1" d="M184,120h230c8.3,0,15,6.7,15,15v70c0,8.3-6.7,15-15,15H184c-8.3,0-15-6.7-15-15v-70
			C169,126.7,175.7,120,184,120z"/>
		<text transform="matrix(1 0 0 1 196.37 197.65)" class="st2 st3 st4">.</text>
		<text transform="matrix(1 0 0 1 217.07 197.65)" class="st2 st3 st4 st5">c</text>
		<text transform="matrix(1 0 0 1 261.27 197.65)" class="st2 st3 st4">om</text>
		<rect x="601" class="st6" width="598" height="341"/>
		<path class="st7" d="M785,120h230c8.3,0,15,6.7,15,15v70c0,8.3-6.7,15-15,15H785c-8.3,0-15-6.7-15-15v-70
			C770,126.7,776.7,120,785,120z"/>
		<text transform="matrix(1 0 0 1 817.27 197.65)" class="st2 st3 st4">.net</text>
		<rect x="1202" class="st0" width="598" height="341"/>
		<path class="st1" d="M1386,120h230c8.3,0,15,6.7,15,15v70c0,8.3-6.7,15-15,15h-230c-8.3,0-15-6.7-15-15v-70
			C1371,126.7,1377.7,120,1386,120z"/>
		<text transform="matrix(1 0 0 1 1440.77 197.65)" class="st2 st3 st4">.es</text>
		<rect y="344" class="st6" width="598" height="341"/>
		<path class="st7" d="M184,464h230c8.3,0,15,6.7,15,15v70c0,8.3-6.7,15-15,15H184c-8.3,0-15-6.7-15-15v-70
			C169,470.7,175.7,464,184,464z"/>
		<text transform="matrix(1 0 0 1 216.27 541.65)" class="st2 st3 st4">.o</text>
		<text transform="matrix(1 0 0 1 291.87 541.65)" class="st2 st3 st4 st5">r</text>
		<text transform="matrix(1 0 0 1 323.77 541.65)" class="st2 st3 st4">g</text>
		<rect x="601" y="344" class="st0" width="598" height="341"/>
		<path class="st1" d="M785,464h230c8.3,0,15,6.7,15,15v70c0,8.3-6.7,15-15,15H785c-8.3,0-15-6.7-15-15v-70
			C770,470.7,776.7,464,785,464z"/>
		<text transform="matrix(1 0 0 1 834.02 541.65)" class="st2 st3 st4">.eu</text>
		<rect x="1202" y="344" class="st6" width="598" height="341"/>
		<path class="st7" d="M1386,464h230c8.3,0,15,6.7,15,15v70c0,8.3-6.7,15-15,15h-230c-8.3,0-15-6.7-15-15v-70
			C1371,470.7,1377.7,464,1386,464z"/>
		<text transform="matrix(1 0 0 1 1424.0699 541.65)" class="st2 st3 st4">.biz</text>
		<rect y="688" class="st0" width="598" height="341"/>
		<path class="st1" d="M184,808h230c8.3,0,15,6.7,15,15v70c0,8.3-6.7,15-15,15H184c-8.3,0-15-6.7-15-15v-70
			C169,814.7,175.7,808,184,808z"/>
		<text transform="matrix(1 0 0 1 240.27 887.65)" class="st2 st3 st4">.us</text>
		<rect x="601" y="688" class="st6" width="598" height="341"/>
		<path class="st7" d="M785,808h230c8.3,0,15,6.7,15,15v70c0,8.3-6.7,15-15,15H785c-8.3,0-15-6.7-15-15v-70
			C770,814.7,776.7,808,785,808z"/>
		<text transform="matrix(1 0 0 1 809.77 887.65)" class="st2 st3 st4">.in</text>
		<text transform="matrix(1 0 0 1 909.37 887.65)" class="st2 st3 st4 st5">f</text>
		<text transform="matrix(1 0 0 1 937.27 887.65)" class="st2 st3 st4">o</text>
		<rect x="1202" y="688" class="st0" width="598" height="341"/>
		<path class="st1" d="M1386,808h230c8.3,0,15,6.7,15,15v70c0,8.3-6.7,15-15,15h-230c-8.3,0-15-6.7-15-15v-70
			C1371,814.7,1377.7,808,1386,808z"/>
		<text transform="matrix(1 0 0 1 1454.67 887.65)" class="st2 st3 st4">.fr</text>
	</g>
</g>
</svg>
