<svg width="58" height="56" viewBox="0 0 58 56" fill="none" xmlns="http://www.w3.org/2000/svg">
<g clip-path="url(#clip0_665_295)">
<path d="M34.4694 39.3399C49.8845 30.2798 60.0115 18.7573 57.0887 13.6037C54.1659 8.45011 39.3 11.6169 23.8848 20.677C8.46971 29.7371 -1.6573 41.2596 1.26554 46.4132C4.18838 51.5668 19.0542 48.4 34.4694 39.3399Z" stroke="#424DE2" stroke-linecap="round" stroke-linejoin="round" stroke-dasharray="3 3"/>
<path d="M50.1396 4.1229V51.8771C50.1396 54.1557 48.3279 56 46.0895 56H41.8951C42.4695 56 42.9979 55.6325 43.4016 55.0277C43.9004 54.2894 44.2188 53.1868 44.2188 51.9573V4.04606C44.2188 3.3745 44.1203 2.70628 43.9365 2.11825C43.9004 2.00465 43.861 1.89106 43.8216 1.78748C43.733 1.56363 43.6411 1.36316 43.5361 1.18609C43.4934 1.10924 43.4475 1.03574 43.4016 0.968916C42.9782 0.340791 42.4498 0 41.8918 0H46.0895C48.3279 0 50.1396 1.84428 50.1396 4.1229Z" fill="url(#paint0_linear_665_295)"/>
<path d="M57.7407 21.2995C57.7407 20.0558 56.7503 19.0476 55.5286 19.0476C54.3069 19.0476 53.3166 20.0558 53.3166 21.2995C53.3166 22.5432 54.3069 23.5514 55.5286 23.5514C56.7503 23.5514 57.7407 22.5432 57.7407 21.2995Z" fill="#424DE2"/>
<path d="M4.42417 39.8459C4.42417 38.6022 3.43379 37.594 2.21209 37.594C0.990385 37.594 0 38.6022 0 39.8459C0 41.0896 0.990385 42.0978 2.21209 42.0978C3.43379 42.0978 4.42417 41.0896 4.42417 39.8459Z" fill="#424DE2"/>
<path d="M10.5025 8.01855V46.2907H41.2453V8.01855H10.5025ZM10.5025 8.01855V46.2907H41.2453V8.01855H10.5025ZM10.5025 8.01855V46.2907H41.2453V8.01855H10.5025Z" fill="url(#paint1_linear_665_295)"/>
<path d="M25.8854 52.8527C24.9336 52.8527 24.159 52.0642 24.159 51.092C24.159 50.1197 24.9336 49.3379 25.8854 49.3379C26.8372 49.3379 27.6117 50.1264 27.6117 51.092C27.6117 52.0575 26.8372 52.8527 25.8854 52.8527Z" fill="#424DE2"/>
<path d="M31.1957 4.25317H29.5153M26.3645 4.25317H20.5521" stroke="#424DE2" stroke-width="1.5" stroke-linecap="round" stroke-linejoin="round"/>
<path d="M14.7002 35.0078H37.041V12.3753L14.7002 12.3753L14.7002 35.0078Z" fill="#00003C"/>
<path d="M37.0443 39.1008H14.7035V42.2348H37.0443V39.1008Z" fill="#00003C"/>
<path d="M41.5571 2.11825C41.498 2.00465 41.4291 1.89106 41.3601 1.78748C41.2124 1.56363 41.0516 1.36316 40.8744 1.18609C40.7989 1.10924 40.7234 1.03574 40.6414 0.968916C39.9226 0.340791 39.02 0 38.0683 0H13.6795C11.4904 0 9.70825 1.81421 9.70825 4.04606V51.9573C9.70825 54.1858 11.4904 56 13.6795 56H38.0715C39.0529 56 39.9521 55.6325 40.6446 55.0277C41.498 54.2894 42.0395 53.1868 42.0395 51.9573V4.04606C42.0395 3.3745 41.8721 2.70628 41.5571 2.11825ZM41.0844 51.9573C41.0844 53.6512 39.7322 55.0277 38.0715 55.0277H13.6795C12.0155 55.0277 10.66 53.6512 10.66 51.9573V47.0993H41.0844V51.9573ZM41.0844 46.1304H10.66V8.17899H41.0844V46.1304ZM10.66 7.20673V4.04606C10.66 2.34879 12.0155 0.968916 13.6795 0.968916H38.0683C38.8724 0.968916 39.6305 1.28966 40.1983 1.87101C40.2968 1.9679 40.3886 2.07816 40.4838 2.20846C40.5134 2.24855 40.5396 2.28531 40.5659 2.3254C40.6217 2.40224 40.6742 2.49245 40.7201 2.57932C40.7891 2.71296 40.8514 2.84995 40.9006 2.99028C40.9335 3.08383 40.963 3.18072 40.9893 3.27761C41.0516 3.53153 41.0844 3.7888 41.0844 4.04606V7.20673H10.66Z" fill="url(#paint2_linear_665_295)"/>
<mask id="mask0_665_295" style="mask-type:luminance" maskUnits="userSpaceOnUse" x="10" y="22" width="41" height="29">
<path d="M50.1396 22.0679L10.1841 34.7974V50.5206H50.1396V22.0679Z" fill="white"/>
</mask>
<g mask="url(#mask0_665_295)">
<path d="M34.4694 39.3399C49.8845 30.2798 60.0115 18.7573 57.0887 13.6037C54.1659 8.45011 39.3 11.6169 23.8848 20.677C8.46971 29.7371 -1.6573 41.2596 1.26554 46.4132C4.18838 51.5668 19.0542 48.4 34.4694 39.3399Z" stroke="#424DE2" stroke-linecap="round" stroke-linejoin="round" stroke-dasharray="3 3"/>
</g>
<path d="M23.6667 29.7358C23.0661 29.7258 22.5738 29.6623 22.1996 29.542C21.8124 29.4184 21.5301 29.2179 21.3594 28.944C21.1855 28.66 21.0936 28.2824 21.0936 27.818V26.1742C21.0936 25.673 20.9722 25.3022 20.7359 25.075C20.5225 24.8712 20.1976 24.7609 19.7447 24.7409V23.7085C20.1976 23.6884 20.5225 23.5782 20.7359 23.3744C20.9722 23.1472 21.0936 22.7763 21.0936 22.2752V20.6213C21.0936 20.1502 21.1822 19.7693 21.3562 19.4954C21.5268 19.2247 21.8124 19.0276 22.1996 18.9007C22.5738 18.777 23.0661 18.7102 23.6667 18.7002V19.7025C23.2663 19.7192 22.9709 19.8094 22.7707 19.9731C22.5344 20.1636 22.4163 20.4609 22.4163 20.8519V22.7028C22.4163 23.0703 22.3276 23.3677 22.157 23.5815C21.983 23.7987 21.7172 23.9591 21.366 24.056L20.8212 24.2063L21.3627 24.3667C21.7139 24.4703 21.983 24.634 22.157 24.8545C22.3276 25.0683 22.4163 25.3657 22.4163 25.7332V27.5708C22.4163 27.9817 22.5377 28.2824 22.774 28.4695C22.9775 28.6299 23.2696 28.7168 23.67 28.7335V29.7358H23.6667ZM28.0778 28.7335C28.4782 28.7168 28.7703 28.6299 28.9738 28.4695C29.2101 28.2824 29.3315 27.9851 29.3315 27.5808V25.7298C29.3315 25.3623 29.4201 25.0683 29.5973 24.8545C29.7746 24.6373 30.0404 24.4769 30.385 24.38L30.92 24.2297L30.3883 24.0693C30.0437 23.9658 29.7779 23.802 29.5973 23.5815C29.4234 23.3677 29.3315 23.0737 29.3315 22.7062V20.8686C29.3315 20.4676 29.2133 20.1669 28.977 19.9765C28.7768 19.8128 28.4814 19.7226 28.081 19.7059V18.7035C28.6784 18.7136 29.1707 18.7804 29.5481 18.904C29.9354 19.031 30.2176 19.2314 30.3883 19.4987C30.5623 19.7727 30.6509 20.1502 30.6509 20.6247V22.2785C30.6509 22.7797 30.7723 23.1505 31.0086 23.3777C31.2219 23.5815 31.5469 23.6918 31.9998 23.7118V24.7442C31.5469 24.7643 31.2219 24.8745 31.0086 25.0783C30.7723 25.3055 30.6509 25.6764 30.6509 26.1776V27.8314C30.6509 28.2958 30.5623 28.6733 30.3883 28.9507C30.2176 29.2213 29.9354 29.4218 29.5481 29.5454C29.174 29.6657 28.6784 29.7291 28.081 29.7392V28.7368L28.0778 28.7335Z" fill="url(#paint3_linear_665_295)"/>
</g>
<defs>
<linearGradient id="paint0_linear_665_295" x1="46.014" y1="-12.3186" x2="46.014" y2="70.8745" gradientUnits="userSpaceOnUse">
<stop stop-color="#AEE0FC"/>
<stop offset="0.5" stop-color="#BFD8FA"/>
<stop offset="1" stop-color="#E4D9FB"/>
</linearGradient>
<linearGradient id="paint1_linear_665_295" x1="25.8722" y1="-0.400991" x2="25.8722" y2="56.4577" gradientUnits="userSpaceOnUse">
<stop stop-color="#AEE0FC"/>
<stop offset="0.5" stop-color="#BFD8FA"/>
<stop offset="1" stop-color="#E4D9FB"/>
</linearGradient>
<linearGradient id="paint2_linear_665_295" x1="25.8722" y1="0" x2="25.8722" y2="56" gradientUnits="userSpaceOnUse">
<stop stop-color="#AEE0FC"/>
<stop offset="0.5" stop-color="#BFD8FA"/>
<stop offset="1" stop-color="#E4D9FB"/>
</linearGradient>
<linearGradient id="paint3_linear_665_295" x1="25.8722" y1="9.27164" x2="25.8722" y2="44.7106" gradientUnits="userSpaceOnUse">
<stop stop-color="#AEE0FC"/>
<stop offset="0.5" stop-color="#BFD8FA"/>
<stop offset="1" stop-color="#E4D9FB"/>
</linearGradient>
<clipPath id="clip0_665_295">
<rect width="58" height="56" fill="white"/>
</clipPath>
</defs>
</svg>
