<svg width="50" height="56" viewBox="0 0 50 56" fill="none" xmlns="http://www.w3.org/2000/svg">
<g clip-path="url(#clip0_665_235)">
<path d="M24.9999 55.9998C21.5654 55.9998 18.6606 53.3583 18.3848 49.9849C18.3848 49.9755 18.3848 49.9629 18.3848 49.9535V44.6421C18.3848 44.4254 18.5603 44.2495 18.7765 44.2495H31.2264C31.4426 44.2495 31.6181 44.4254 31.6181 44.6421V49.9535C31.6181 49.9535 31.6181 49.9817 31.6181 49.9974C31.2452 53.4211 28.3998 56.0029 25.003 56.0029L24.9999 55.9998ZM19.1651 49.9378C19.4158 52.8997 21.9759 55.2146 24.9999 55.2146C28.0238 55.2146 30.4931 52.9437 30.8315 49.9315V45.0347H19.1651V49.9378Z" fill="url(#paint0_linear_665_235)"/>
<path d="M18.3097 44.6429C16.9246 44.6429 15.8028 43.531 15.8028 42.1584C15.8028 39.3315 14.7656 36.5895 12.8635 34.4473C7.32949 28.2816 7.24489 18.686 13.6406 12.4324C16.7554 9.43594 20.732 7.72412 25.0532 7.72412C33.9558 7.72412 41.2196 15.0048 41.2196 23.8309C41.3073 27.6849 39.9223 31.454 37.243 34.3657C35.344 36.5078 34.3068 39.2498 34.3068 42.0767C34.3068 43.4493 33.1818 44.646 31.7999 44.646H18.3128L18.3097 44.6429Z" fill="url(#paint1_linear_665_235)" stroke="#424DE2" stroke-width="1.5" stroke-miterlimit="10"/>
<path d="M22.7218 44.0139V25.363C22.7218 23.4093 21.1362 21.8105 19.1777 21.8105C17.2192 21.8105 15.6429 23.4093 15.6429 25.363C15.6429 27.3166 17.2286 28.9154 19.1871 28.9154H30.8191C32.7682 28.9154 34.3632 27.3261 34.3632 25.363C34.3632 23.3999 32.7776 21.8105 30.8191 21.8105C28.8605 21.8105 27.2749 23.3999 27.2749 25.363V44.0139H22.7249H22.7218Z" fill="#00003C"/>
<path d="M33.1223 47.9243H16.8777V50.7355H33.1223V47.9243Z" fill="#424DE2"/>
<path d="M2.20599 25.0587C2.20599 12.4415 12.4122 2.21143 24.9999 2.21143C37.5877 2.21143 47.7939 12.4415 47.7939 25.0587" stroke="url(#paint2_linear_665_235)" stroke-linecap="round" stroke-linejoin="round" stroke-dasharray="3 3"/>
<path d="M4.93855 2.68228C4.67846 2.68228 4.46851 2.47183 4.46851 2.21113C4.46851 1.95043 4.67846 1.73999 4.93855 1.73999H45.0582C45.3183 1.73999 45.5283 1.95043 45.5283 2.21113C45.5283 2.47183 45.3183 2.68228 45.0582 2.68228H4.93855Z" fill="url(#paint3_linear_665_235)"/>
<path d="M2.20607 29.4904C0.98709 29.4904 0 28.501 0 27.2792C0 26.0573 0.98709 25.0679 2.20607 25.0679C3.42504 25.0679 4.41213 26.0573 4.41213 27.2792C4.41213 28.501 3.42504 29.4904 2.20607 29.4904ZM27.2061 2.21123C27.2061 0.989399 26.219 0 25 0C23.781 0 22.7939 0.989399 22.7939 2.21123C22.7939 3.43306 23.781 4.42246 25 4.42246C26.219 4.42246 27.2061 3.43306 27.2061 2.21123ZM50 27.2792C50 26.0573 49.0129 25.0679 47.7939 25.0679C46.575 25.0679 45.5879 26.0573 45.5879 27.2792C45.5879 28.501 46.575 29.4904 47.7939 29.4904C49.0129 29.4904 50 28.501 50 27.2792Z" fill="#424DE2"/>
</g>
<defs>
<linearGradient id="paint0_linear_665_235" x1="24.9999" y1="0.631136" x2="24.9999" y2="55.4219" gradientUnits="userSpaceOnUse">
<stop stop-color="#AEE0FC"/>
<stop offset="0.5" stop-color="#BFD8FA"/>
<stop offset="1" stop-color="#E4D9FB"/>
</linearGradient>
<linearGradient id="paint1_linear_665_235" x1="25" y1="0.512498" x2="25" y2="56.7261" gradientUnits="userSpaceOnUse">
<stop stop-color="#AEE0FC"/>
<stop offset="0.5" stop-color="#BFD8FA"/>
<stop offset="1" stop-color="#E4D9FB"/>
</linearGradient>
<linearGradient id="paint2_linear_665_235" x1="24.9999" y1="1.81881" x2="24.9999" y2="25.4513" gradientUnits="userSpaceOnUse">
<stop stop-color="#AEE0FC"/>
<stop offset="0.5" stop-color="#BFD8FA"/>
<stop offset="1" stop-color="#E4D9FB"/>
</linearGradient>
<linearGradient id="paint3_linear_665_235" x1="25" y1="0.939048" x2="25" y2="42.2111" gradientUnits="userSpaceOnUse">
<stop stop-color="#AEE0FC"/>
<stop offset="0.5" stop-color="#BFD8FA"/>
<stop offset="1" stop-color="#E4D9FB"/>
</linearGradient>
<clipPath id="clip0_665_235">
<rect width="50" height="56" fill="white"/>
</clipPath>
</defs>
</svg>
