<svg width="54" height="60" viewBox="0 0 54 60" fill="none" xmlns="http://www.w3.org/2000/svg">
<g clip-path="url(#clip0_986_441)">
<path d="M27.3943 28.1106V23.7405" stroke="url(#paint0_linear_986_441)" style="" stroke-linecap="round" stroke-linejoin="round" stroke-dasharray="3 3"/>
<path d="M27 20.5001C31.5613 20.5001 35.259 16.7251 35.259 12.0683C35.259 7.41153 31.5613 3.63647 27 3.63647C22.4387 3.63647 18.741 7.41153 18.741 12.0683C18.741 16.7251 22.4387 20.5001 27 20.5001Z" fill="#424DE2" style="fill:#424DE2;fill:color(display-p3 0.2588 0.3020 0.8863);fill-opacity:1;"/>
<path d="M36.8555 6.14949C37.8572 7.88325 38.4328 9.90598 38.4328 12.0651C38.4328 18.5099 33.3159 23.7339 27.0032 23.7339C20.6904 23.7339 15.5735 18.5099 15.5735 12.0651C15.5735 5.62027 20.6873 0.39624 27 0.39624C29.083 0.39624 31.0357 0.964422 32.718 1.95793" stroke="url(#paint1_linear_986_441)" style="" stroke-linecap="round" stroke-linejoin="round" stroke-dasharray="3 3"/>
<path d="M27.0922 15.9188C26.5643 15.9188 26.0968 15.8442 25.6929 15.6981C25.289 15.5519 24.9392 15.3507 24.6498 15.1007C24.4622 14.9383 24.2968 14.7662 24.1537 14.5779C24.0233 14.4058 24.0583 14.1591 24.2236 14.0195L24.3731 13.8961C24.5512 13.7468 24.812 13.7922 24.9455 13.9805C25.041 14.1169 25.1491 14.2403 25.2699 14.3571C25.4925 14.5747 25.7597 14.7468 26.0713 14.8734C26.383 15 26.7424 15.0617 27.1494 15.0617C27.7155 15.0617 28.1639 14.9578 28.4978 14.7468C28.8318 14.5357 28.9971 14.2273 28.9971 13.8214C28.9971 13.5812 28.9176 13.3636 28.7618 13.1721C28.606 12.9805 28.3134 12.8344 27.8841 12.7338L26.1636 12.3344C25.7056 12.224 25.3367 12.0779 25.0632 11.8961C24.7865 11.7143 24.5894 11.4935 24.4653 11.2403C24.3445 10.987 24.2809 10.711 24.2809 10.4156C24.2809 10.0097 24.389 9.63961 24.6084 9.30195C24.8279 8.96754 25.1395 8.69805 25.5498 8.49351C25.96 8.29221 26.4498 8.18831 27.0222 8.18831C27.6646 8.18831 28.2212 8.32143 28.6918 8.58767C29.0576 8.79546 29.3756 9.08117 29.6427 9.4513C29.7699 9.62663 29.7349 9.87987 29.5632 10.013L29.4519 10.1007C29.2706 10.2403 29.0162 10.1948 28.8858 10.0097C28.6759 9.71104 28.4406 9.49026 28.1894 9.34091C27.8427 9.13961 27.4229 9.03572 26.9332 9.03572C26.5357 9.03572 26.2113 9.09091 25.9569 9.20455C25.7024 9.31818 25.518 9.46754 25.394 9.65585C25.2731 9.84416 25.2095 10.0552 25.2095 10.289C25.2095 10.4675 25.2445 10.6331 25.3113 10.7792C25.3812 10.9286 25.5053 11.0584 25.6834 11.1721C25.8614 11.2857 26.1127 11.3799 26.4339 11.4578L28.0272 11.8214C28.73 11.9773 29.2229 12.2175 29.4996 12.5422C29.7795 12.8669 29.9194 13.2662 29.9194 13.7435C29.9194 14.1721 29.8017 14.552 29.5696 14.8799C29.3374 15.2078 29.0067 15.4643 28.5837 15.6461C28.1607 15.8279 27.6614 15.9221 27.0858 15.9221L27.0922 15.9188ZM26.6565 16.6981V7.43507C26.6565 7.21104 26.8346 7.03247 27.0508 7.03247C27.2703 7.03247 27.4452 7.21429 27.4452 7.43507V16.6981C27.4452 16.9221 27.2671 17.1007 27.0508 17.1007C26.8314 17.1007 26.6565 16.9188 26.6565 16.6981Z" fill="url(#paint2_linear_986_441)" style=""/>
<path d="M53.3671 51.8572C53.3671 55.1396 51.265 58.0779 48.1325 59.039C44.7806 60.0617 41.1806 58.5357 39.5396 55.3799L38.7445 53.8637C38.5187 53.4253 38.2929 52.9935 38.064 52.5585C37.5551 52.7208 37.0177 52.8052 36.4579 52.8052C33.7357 52.8052 31.4841 50.7565 31.0993 48.0877H22.8975C22.5095 50.7565 20.2611 52.8052 17.5357 52.8052C16.976 52.8052 16.4385 52.7208 15.9329 52.5585C15.7007 52.9935 15.4749 53.4253 15.2491 53.8637L14.4541 55.3799C13.1533 57.8734 10.6283 59.3539 7.9696 59.3539C7.26996 59.3539 6.56077 59.2533 5.86112 59.039C2.506 58.013 0.330734 54.7111 0.658296 51.1494L0.804586 49.5292C1.24346 44.8052 1.56466 40.0682 1.88904 35.3409C1.9431 34.5422 2.08303 33.737 2.31837 32.9416C4.0325 27.1072 10.0177 23.8344 15.7261 25.6007C17.5007 26.1494 19.0304 27.1266 20.2484 28.3864H33.7389C34.9569 27.1266 36.4897 26.1494 38.2579 25.6007C43.9696 23.8344 49.9548 27.1104 51.6689 32.9416C51.9042 33.737 52.0442 34.5422 52.0982 35.3409C52.4194 40.0714 52.7438 44.8052 53.1827 49.5292L53.3321 51.1494C53.3544 51.3896 53.364 51.6201 53.364 51.8572H53.3671Z" fill="url(#paint3_linear_986_441)" stroke="#424DE2" style="stroke:#424DE2;stroke:color(display-p3 0.2588 0.3020 0.8863);stroke-opacity:1;" stroke-width="1.5" stroke-miterlimit="10"/>
<path d="M31.4746 40.8477H28.835C28.3502 40.8477 27.9572 41.2489 27.9572 41.7438C27.9572 42.2387 28.3502 42.6399 28.835 42.6399H31.4746C31.9593 42.6399 32.3523 42.2387 32.3523 41.7438C32.3523 41.2489 31.9593 40.8477 31.4746 40.8477Z" fill="#00003C" style="fill:#00003C;fill:color(display-p3 0.0000 0.0000 0.2353);fill-opacity:1;"/>
<path d="M25.1682 40.8477H22.5254C22.0407 40.8477 21.6477 41.2489 21.6477 41.7438C21.6477 42.2387 22.0407 42.6399 22.5254 42.6399H25.1682C25.653 42.6399 26.0459 42.2387 26.0459 41.7438C26.0459 41.2489 25.653 40.8477 25.1682 40.8477Z" fill="#00003C" style="fill:#00003C;fill:color(display-p3 0.0000 0.0000 0.2353);fill-opacity:1;"/>
<path d="M21.4346 46.9547C21.4346 47.2502 21.406 47.5359 21.3487 47.8119C20.9608 49.7729 19.2593 51.2502 17.2272 51.2502C16.8996 51.2502 16.5784 51.208 16.2699 51.1365C14.4095 50.695 13.0229 48.9904 13.0229 46.958C13.0229 44.5911 14.9088 42.6658 17.2272 42.6658C19.5456 42.6658 21.4346 44.5911 21.4346 46.958V46.9547Z" fill="#424DE2" style="fill:#424DE2;fill:color(display-p3 0.2588 0.3020 0.8863);fill-opacity:1;"/>
<path d="M40.9738 46.9546C40.9738 48.9871 39.5841 50.6916 37.7269 51.1332C37.4216 51.2046 37.1035 51.2468 36.7696 51.2468C34.7375 51.2468 33.036 49.7663 32.6481 47.8085C32.5908 47.5326 32.5654 47.2468 32.5654 46.9514C32.5654 44.5845 34.4512 42.6592 36.7696 42.6592C39.088 42.6592 40.9738 44.5845 40.9738 46.9514V46.9546Z" fill="#424DE2" style="fill:#424DE2;fill:color(display-p3 0.2588 0.3020 0.8863);fill-opacity:1;"/>
<path d="M46.0177 37.2888C47.0469 37.2888 47.8813 36.437 47.8813 35.3862C47.8813 34.3355 47.0469 33.4836 46.0177 33.4836C44.9884 33.4836 44.1541 34.3355 44.1541 35.3862C44.1541 36.437 44.9884 37.2888 46.0177 37.2888Z" fill="#00003C" style="fill:#00003C;fill:color(display-p3 0.0000 0.0000 0.2353);fill-opacity:1;"/>
<path d="M44.4848 38.9448C44.4848 39.9968 43.6484 40.8474 42.6148 40.8474C41.5813 40.8474 40.7512 39.9968 40.7512 38.9448C40.7512 37.8929 41.5876 37.0422 42.6148 37.0422C43.642 37.0422 44.4848 37.8929 44.4848 38.9448Z" fill="#00003C" style="fill:#00003C;fill:color(display-p3 0.0000 0.0000 0.2353);fill-opacity:1;"/>
<path d="M44.4848 31.8281C44.4848 32.8801 43.6484 33.7372 42.6148 33.7372C41.5813 33.7372 40.7512 32.8833 40.7512 31.8281C40.7512 30.7729 41.5876 29.9255 42.6148 29.9255C43.642 29.9255 44.4848 30.7794 44.4848 31.8281Z" fill="#00003C" style="fill:#00003C;fill:color(display-p3 0.0000 0.0000 0.2353);fill-opacity:1;"/>
<path d="M40.9993 35.3023C40.9993 36.3542 40.1629 37.2049 39.1357 37.2049C38.1085 37.2049 37.2657 36.3542 37.2657 35.3023C37.2657 34.2503 38.1021 33.3997 39.1357 33.3997C40.1692 33.3997 40.9993 34.2503 40.9993 35.3023Z" fill="#00003C" style="fill:#00003C;fill:color(display-p3 0.0000 0.0000 0.2353);fill-opacity:1;"/>
<path d="M17.1572 34.1169V36.6559C17.1572 37.0585 16.8392 37.3831 16.4449 37.3831H13.4205V40.4741C13.4205 40.8767 13.0993 41.1981 12.7081 41.1981H10.2212C9.82683 41.1981 9.51199 40.8734 9.51199 40.4741V37.3831H6.48443C6.09009 37.3831 5.77206 37.0552 5.77206 36.6559V34.1169C5.77206 33.7143 6.09327 33.3929 6.48443 33.3929H9.51199V30.302C9.51199 29.8994 9.83001 29.5747 10.2212 29.5747H12.7081C13.1025 29.5747 13.4205 29.9026 13.4205 30.302V33.3929H16.4449C16.8424 33.3929 17.1572 33.7176 17.1572 34.1169Z" fill="#00003C" style="fill:#00003C;fill:color(display-p3 0.0000 0.0000 0.2353);fill-opacity:1;"/>
</g>
<defs>
<linearGradient id="paint0_linear_986_441" x1="nan" y1="nan" x2="nan" y2="nan" gradientUnits="userSpaceOnUse">
<stop stop-color="#AEE0FC" style="stop-color:#AEE0FC;stop-color:color(display-p3 0.6824 0.8784 0.9882);stop-opacity:1;"/>
<stop offset="0.5" stop-color="#BFD8FA" style="stop-color:#BFD8FA;stop-color:color(display-p3 0.7490 0.8471 0.9804);stop-opacity:1;"/>
<stop offset="1" stop-color="#E4D9FB" style="stop-color:#E4D9FB;stop-color:color(display-p3 0.8941 0.8510 0.9843);stop-opacity:1;"/>
</linearGradient>
<linearGradient id="paint1_linear_986_441" x1="15.1791" y1="12.0683" x2="38.8208" y2="12.0683" gradientUnits="userSpaceOnUse">
<stop stop-color="#AEE0FC" style="stop-color:#AEE0FC;stop-color:color(display-p3 0.6824 0.8784 0.9882);stop-opacity:1;"/>
<stop offset="0.5" stop-color="#BFD8FA" style="stop-color:#BFD8FA;stop-color:color(display-p3 0.7490 0.8471 0.9804);stop-opacity:1;"/>
<stop offset="1" stop-color="#E4D9FB" style="stop-color:#E4D9FB;stop-color:color(display-p3 0.8941 0.8510 0.9843);stop-opacity:1;"/>
</linearGradient>
<linearGradient id="paint2_linear_986_441" x1="24.0742" y1="12.0682" x2="29.9258" y2="12.0682" gradientUnits="userSpaceOnUse">
<stop stop-color="#AEE0FC" style="stop-color:#AEE0FC;stop-color:color(display-p3 0.6824 0.8784 0.9882);stop-opacity:1;"/>
<stop offset="0.5" stop-color="#BFD8FA" style="stop-color:#BFD8FA;stop-color:color(display-p3 0.7490 0.8471 0.9804);stop-opacity:1;"/>
<stop offset="1" stop-color="#E4D9FB" style="stop-color:#E4D9FB;stop-color:color(display-p3 0.8941 0.8510 0.9843);stop-opacity:1;"/>
</linearGradient>
<linearGradient id="paint3_linear_986_441" x1="0.632855" y1="42.237" x2="53.3671" y2="42.237" gradientUnits="userSpaceOnUse">
<stop stop-color="#AEE0FC" style="stop-color:#AEE0FC;stop-color:color(display-p3 0.6824 0.8784 0.9882);stop-opacity:1;"/>
<stop offset="0.5" stop-color="#BFD8FA" style="stop-color:#BFD8FA;stop-color:color(display-p3 0.7490 0.8471 0.9804);stop-opacity:1;"/>
<stop offset="1" stop-color="#E4D9FB" style="stop-color:#E4D9FB;stop-color:color(display-p3 0.8941 0.8510 0.9843);stop-opacity:1;"/>
</linearGradient>
<clipPath id="clip0_986_441">
<rect width="54" height="60" fill="white" style="fill:white;fill-opacity:1;"/>
</clipPath>
</defs>
</svg>
