<svg width="39" height="40" viewBox="0 0 39 40" fill="none" xmlns="http://www.w3.org/2000/svg">
<mask id="mask0_665_112" style="mask-type:alpha" maskUnits="userSpaceOnUse" x="15" y="31" width="9" height="9">
<path d="M23.3831 35.5397C23.3831 37.6481 21.6739 39.3573 19.5655 39.3573C17.4571 39.3573 15.748 37.6481 15.748 35.5397C15.748 33.4313 17.4571 31.7222 19.5655 31.7222C21.6739 31.7222 23.3831 33.4313 23.3831 35.5397Z" stroke="url(#paint0_linear_665_112)"/>
</mask>
<g mask="url(#mask0_665_112)">
<rect x="14.4527" y="34.6011" width="10.5135" height="6.19593" fill="url(#paint1_linear_665_112)" stroke="url(#paint2_linear_665_112)"/>
</g>
<path fill-rule="evenodd" clip-rule="evenodd" d="M15.1988 34.8209C14.8022 34.8209 14.4813 34.4965 14.4813 34.0999V30.4996C10.3029 28.5672 7.40439 24.3239 7.40439 19.3956C7.40439 12.6504 12.8482 7.17773 19.561 7.17773C26.2738 7.17773 31.7176 12.6468 31.7176 19.3956C31.7176 24.3203 28.8155 28.5672 24.6407 30.4996V34.0999C24.6407 34.4965 24.3198 34.8209 23.9233 34.8209H15.2024H15.1988Z" stroke="url(#paint3_linear_665_112)" stroke-miterlimit="10"/>
<path d="M13.8071 19.0739L18.5515 23.8435L25.6429 16.7197" stroke="url(#paint4_linear_665_112)" stroke-linecap="round" stroke-linejoin="round"/>
<path d="M19.554 3.3722V1" stroke="url(#paint5_linear_665_112)" stroke-linecap="round" stroke-linejoin="round"/>
<path d="M3.35778 19.2842H1" stroke="url(#paint6_linear_665_112)" stroke-linecap="round" stroke-linejoin="round"/>
<path d="M5.72278 7.31201L7.39197 8.98841" stroke="url(#paint7_linear_665_112)" stroke-linecap="round" stroke-linejoin="round"/>
<path d="M38.1117 19.2842H35.754" stroke="url(#paint8_linear_665_112)" stroke-linecap="round" stroke-linejoin="round"/>
<path d="M32.4805 9.4972L34.1497 7.8208" stroke="url(#paint9_linear_665_112)" stroke-linecap="round" stroke-linejoin="round"/>
<path d="M14.3341 30.4985H24.4899" stroke="url(#paint10_linear_665_112)" stroke-miterlimit="10"/>
<defs>
<linearGradient id="paint0_linear_665_112" x1="19.6362" y1="30.4744" x2="19.2822" y2="39.3638" gradientUnits="userSpaceOnUse">
<stop stop-color="#AEE0FC"/>
<stop offset="0.5" stop-color="#BFD8FA"/>
<stop offset="1" stop-color="#E4D9FB"/>
</linearGradient>
<linearGradient id="paint1_linear_665_112" x1="19.6376" y1="0.280186" x2="19.5407" y2="39.138" gradientUnits="userSpaceOnUse">
<stop stop-color="#AEE0FC"/>
<stop offset="0.5" stop-color="#BFD8FA"/>
<stop offset="1" stop-color="#E4D9FB"/>
</linearGradient>
<linearGradient id="paint2_linear_665_112" x1="19.1338" y1="-0.439409" x2="19.0368" y2="38.4184" gradientUnits="userSpaceOnUse">
<stop stop-color="#AEE0FC"/>
<stop offset="0.5" stop-color="#BFD8FA"/>
<stop offset="1" stop-color="#E4D9FB"/>
</linearGradient>
<linearGradient id="paint3_linear_665_112" x1="19.4093" y1="1.00005" x2="18.1304" y2="39.816" gradientUnits="userSpaceOnUse">
<stop stop-color="#AEE0FC"/>
<stop offset="0.5" stop-color="#BFD8FA"/>
<stop offset="1" stop-color="#E4D9FB"/>
</linearGradient>
<linearGradient id="paint4_linear_665_112" x1="19.6511" y1="0.999701" x2="19.6233" y2="39.8577" gradientUnits="userSpaceOnUse">
<stop stop-color="#AEE0FC"/>
<stop offset="0.5" stop-color="#BFD8FA"/>
<stop offset="1" stop-color="#E4D9FB"/>
</linearGradient>
<linearGradient id="paint5_linear_665_112" x1="20.0622" y1="0.794568" x2="16.8726" y2="39.5959" gradientUnits="userSpaceOnUse">
<stop stop-color="#AEE0FC"/>
<stop offset="0.5" stop-color="#BFD8FA"/>
<stop offset="1" stop-color="#E4D9FB"/>
</linearGradient>
<linearGradient id="paint6_linear_665_112" x1="2.16418" y1="6.07959" x2="2.13785" y2="33.5796" gradientUnits="userSpaceOnUse">
<stop stop-color="#AEE0FC"/>
<stop offset="0.5" stop-color="#BFD8FA"/>
<stop offset="1" stop-color="#E4D9FB"/>
</linearGradient>
<linearGradient id="paint7_linear_665_112" x1="6.54696" y1="0.280516" x2="5.51685" y2="39.8313" gradientUnits="userSpaceOnUse">
<stop stop-color="#AEE0FC"/>
<stop offset="0.5" stop-color="#BFD8FA"/>
<stop offset="1" stop-color="#E4D9FB"/>
</linearGradient>
<linearGradient id="paint8_linear_665_112" x1="36.9181" y1="6.07959" x2="36.8923" y2="33.0796" gradientUnits="userSpaceOnUse">
<stop stop-color="#AEE0FC"/>
<stop offset="0.5" stop-color="#BFD8FA"/>
<stop offset="1" stop-color="#E4D9FB"/>
</linearGradient>
<linearGradient id="paint9_linear_665_112" x1="33.3047" y1="0.28053" x2="32.2745" y2="39.8313" gradientUnits="userSpaceOnUse">
<stop stop-color="#AEE0FC"/>
<stop offset="0.5" stop-color="#BFD8FA"/>
<stop offset="1" stop-color="#E4D9FB"/>
</linearGradient>
<linearGradient id="paint10_linear_665_112" x1="18.9898" y1="10.002" x2="20.7608" y2="37.3874" gradientUnits="userSpaceOnUse">
<stop stop-color="#AEE0FC"/>
<stop offset="0.5" stop-color="#BFD8FA"/>
<stop offset="1" stop-color="#E4D9FB"/>
</linearGradient>
</defs>
</svg>
