<svg width="20" height="20" viewBox="0 0 20 20" fill="none" xmlns="http://www.w3.org/2000/svg">
<path d="M13.9743 3.11477e-06H5.92881C2.66083 3.11477e-06 0.00663548 2.64756 0 5.91554V13.9445C0.00663548 17.2125 2.66083 19.86 5.92881 19.86H13.9743C17.2456 19.86 19.8998 17.2125 19.9065 13.9445V5.91554C19.8998 2.64424 17.2456 -0.00331463 13.9743 3.11477e-06ZM17.9025 13.9445C17.9025 16.111 16.1408 17.866 13.9743 17.8627H5.92881C3.76232 17.8627 2.00392 16.111 2.0006 13.9445V5.91554C2.0006 3.74905 3.76232 1.99397 5.92881 1.99728H13.9743C16.1408 1.99728 17.8992 3.74905 17.9025 5.91554V13.9445Z" fill="#C8C3DC"/>
<path d="M9.95323 4.7941C7.11656 4.80073 4.82068 7.10325 4.82732 9.93991C4.83395 12.7766 7.13646 15.0725 9.97313 15.0658C12.8065 15.0592 15.099 12.7633 15.099 9.92996C15.0924 7.08997 12.7899 4.7941 9.95323 4.7941ZM9.95323 13.0719C8.21805 13.0685 6.81796 11.6585 6.82128 9.92664C6.8246 8.19147 8.23464 6.79138 9.9665 6.7947C11.6984 6.79801 13.0984 8.20142 13.0984 9.93328C13.0984 11.6685 11.6884 13.0752 9.95323 13.0719ZM16.3432 4.83391C16.3432 5.51405 15.7925 6.06811 15.1123 6.07143C14.4322 6.07143 13.8781 5.52068 13.8748 4.84055C13.8748 4.16041 14.4255 3.60635 15.1057 3.60303C15.7858 3.60303 16.3399 4.15377 16.3399 4.83391H16.3432Z" fill="#C8C3DC"/>
</svg>
