<?xml version="1.0" encoding="UTF-8"?>
<svg id="Layer_2" data-name="Layer 2" xmlns="http://www.w3.org/2000/svg" xmlns:xlink="http://www.w3.org/1999/xlink" viewBox="0 0 749.66 597.4">
  <defs>
    <style>
      .cls-1 {
        stroke: #c8c3dc;
        stroke-linecap: round;
        stroke-linejoin: round;
      }

      .cls-1, .cls-2, .cls-3, .cls-4, .cls-5 {
        fill: none;
      }

      .cls-6 {
        fill: #fff;
        font-family: InterTight-Light, 'Inter Tight';
        font-size: 24px;
        font-weight: 300;
        letter-spacing: .07em;
      }

      .cls-7 {
        fill: #080433;
        stroke: #e45fff;
      }

      .cls-7, .cls-2, .cls-8, .cls-3, .cls-4, .cls-5 {
        stroke-miterlimit: 10;
      }

      .cls-7, .cls-3, .cls-4 {
        stroke-width: 2px;
      }

      .cls-2 {
        stroke: url(#linear-gradient-3);
        stroke-width: 3px;
      }

      .cls-2, .cls-4 {
        opacity: .3;
      }

      .cls-8 {
        fill: #060226;
      }

      .cls-8, .cls-5 {
        stroke: #fff;
        stroke-width: .5px;
      }

      .cls-9 {
        fill: url(#radial-gradient-2);
      }

      .cls-3 {
        stroke: url(#linear-gradient);
      }

      .cls-10 {
        fill: url(#radial-gradient);
      }

      .cls-4 {
        stroke: url(#linear-gradient-2);
      }
    </style>
    <linearGradient id="linear-gradient" x1="76.13" y1="298.7" x2="673.53" y2="298.7" gradientUnits="userSpaceOnUse">
      <stop offset="0" stop-color="#e45fff"/>
      <stop offset=".06" stop-color="#e45fff" stop-opacity=".8"/>
      <stop offset=".12" stop-color="#e45fff" stop-opacity=".59"/>
      <stop offset=".18" stop-color="#e45fff" stop-opacity=".41"/>
      <stop offset=".25" stop-color="#e45fff" stop-opacity=".26"/>
      <stop offset=".31" stop-color="#e45fff" stop-opacity=".15"/>
      <stop offset=".38" stop-color="#e45fff" stop-opacity=".07"/>
      <stop offset=".44" stop-color="#e45fff" stop-opacity=".02"/>
      <stop offset=".5" stop-color="#e45fff" stop-opacity="0"/>
      <stop offset=".56" stop-color="#e45fff" stop-opacity=".02"/>
      <stop offset=".62" stop-color="#e45fff" stop-opacity=".07"/>
      <stop offset=".69" stop-color="#e45fff" stop-opacity=".15"/>
      <stop offset=".75" stop-color="#e45fff" stop-opacity=".26"/>
      <stop offset=".82" stop-color="#e45fff" stop-opacity=".41"/>
      <stop offset=".88" stop-color="#e45fff" stop-opacity=".59"/>
      <stop offset=".94" stop-color="#e45fff" stop-opacity=".8"/>
      <stop offset="1" stop-color="#e45fff"/>
    </linearGradient>
    <linearGradient id="linear-gradient-2" x1="153.63" y1="298.7" x2="596.04" y2="298.7" gradientUnits="userSpaceOnUse">
      <stop offset="0" stop-color="#a35fff"/>
      <stop offset=".06" stop-color="#a361ff" stop-opacity=".8"/>
      <stop offset=".12" stop-color="#a363ff" stop-opacity=".59"/>
      <stop offset=".18" stop-color="#a366ff" stop-opacity=".41"/>
      <stop offset=".25" stop-color="#a367ff" stop-opacity=".26"/>
      <stop offset=".31" stop-color="#a369ff" stop-opacity=".15"/>
      <stop offset=".38" stop-color="#a36aff" stop-opacity=".07"/>
      <stop offset=".44" stop-color="#a36aff" stop-opacity=".02"/>
      <stop offset=".5" stop-color="#a36bff" stop-opacity="0"/>
      <stop offset=".56" stop-color="#a36bff" stop-opacity=".02"/>
      <stop offset=".62" stop-color="#a36bff" stop-opacity=".07"/>
      <stop offset=".69" stop-color="#a36bff" stop-opacity=".15"/>
      <stop offset=".75" stop-color="#a36bff" stop-opacity=".26"/>
      <stop offset=".82" stop-color="#a36bff" stop-opacity=".41"/>
      <stop offset=".88" stop-color="#a36bff" stop-opacity=".59"/>
      <stop offset=".94" stop-color="#a36bff" stop-opacity=".8"/>
      <stop offset="1" stop-color="#a36bff"/>
    </linearGradient>
    <linearGradient id="linear-gradient-3" x1="230.26" y1="298.7" x2="519.41" y2="298.7" gradientUnits="userSpaceOnUse">
      <stop offset="0" stop-color="#5e6bff"/>
      <stop offset=".06" stop-color="#5e6bff" stop-opacity=".8"/>
      <stop offset=".12" stop-color="#5e6bff" stop-opacity=".59"/>
      <stop offset=".18" stop-color="#5e6bff" stop-opacity=".41"/>
      <stop offset=".25" stop-color="#5e6bff" stop-opacity=".26"/>
      <stop offset=".31" stop-color="#5e6bff" stop-opacity=".15"/>
      <stop offset=".38" stop-color="#5e6bff" stop-opacity=".07"/>
      <stop offset=".44" stop-color="#5e6bff" stop-opacity=".02"/>
      <stop offset=".5" stop-color="#5e6bff" stop-opacity="0"/>
      <stop offset=".56" stop-color="#5e6bff" stop-opacity=".02"/>
      <stop offset=".62" stop-color="#5e6bff" stop-opacity=".07"/>
      <stop offset=".69" stop-color="#5e6bff" stop-opacity=".15"/>
      <stop offset=".75" stop-color="#5e6bff" stop-opacity=".26"/>
      <stop offset=".82" stop-color="#5e6bff" stop-opacity=".41"/>
      <stop offset=".88" stop-color="#5e6bff" stop-opacity=".59"/>
      <stop offset=".94" stop-color="#5e6bff" stop-opacity=".8"/>
      <stop offset="1" stop-color="#5e6bff"/>
    </linearGradient>
    <radialGradient id="radial-gradient" cx="-2610.35" cy="-643.67" fx="-2610.35" fy="-643.67" r="27.28" gradientTransform="translate(28.86 2909.05) rotate(90)" gradientUnits="userSpaceOnUse">
      <stop offset=".08" stop-color="#dfd8dd"/>
      <stop offset=".12" stop-color="#e097e7"/>
      <stop offset=".15" stop-color="#e161ef"/>
      <stop offset=".18" stop-color="#e237f6"/>
      <stop offset=".21" stop-color="#e318fb"/>
      <stop offset=".23" stop-color="#e306fd"/>
      <stop offset=".24" stop-color="#e400ff"/>
      <stop offset=".25" stop-color="#e400ff" stop-opacity=".96"/>
      <stop offset=".28" stop-color="#e400ff" stop-opacity=".78"/>
      <stop offset=".31" stop-color="#e400ff" stop-opacity=".61"/>
      <stop offset=".35" stop-color="#e400ff" stop-opacity=".47"/>
      <stop offset=".39" stop-color="#e400ff" stop-opacity=".34"/>
      <stop offset=".44" stop-color="#e400ff" stop-opacity=".23"/>
      <stop offset=".49" stop-color="#e400ff" stop-opacity=".15"/>
      <stop offset=".54" stop-color="#e400ff" stop-opacity=".08"/>
      <stop offset=".62" stop-color="#e400ff" stop-opacity=".03"/>
      <stop offset=".72" stop-color="#e400ff" stop-opacity="0"/>
      <stop offset="1" stop-color="#e400ff" stop-opacity="0"/>
    </radialGradient>
    <radialGradient id="radial-gradient-2" cy="-48.27" fy="-48.27" r="27.28" xlink:href="#radial-gradient"/>
  </defs>
  <g id="Layer_1-2" data-name="Layer 1">
    <g>
      <rect class="cls-7" x="43.62" y="480.93" width="75.96" height="75.96" rx="7.29" ry="7.29" transform="translate(-95.23 24.28) rotate(-10.74)"/>
      <g>
        <circle class="cls-1" cx="81.6" cy="518.91" r="22.67"/>
        <path class="cls-1" d="m94.75,523.22c-2.61,7.27-10.61,11.05-17.88,8.44-2.29-.82-4.33-2.23-5.91-4.08m-.33-9.71c-.32-1.64.76-3.22,2.4-3.54s3.22.76,3.54,2.4m8.91-1.72c-.32-1.64.76-3.22,2.4-3.54,1.64-.32,3.22.76,3.54,2.4"/>
      </g>
    </g>
    <g>
      <circle class="cls-8" cx="374.83" cy="298.7" r="65.22"/>
      <line class="cls-5" x1="440.05" y1="298.7" x2="749.66" y2="298.7"/>
      <text class="cls-6" transform="translate(323.96 308.78)"><tspan x="0" y="0">Maintain</tspan></text>
      <line class="cls-5" y1="298.7" x2="309.61" y2="298.7"/>
      <circle class="cls-3" cx="374.83" cy="298.7" r="297.7"/>
      <circle class="cls-4" cx="374.83" cy="298.7" r="220.21"/>
      <circle class="cls-2" cx="374.83" cy="298.7" r="143.08"/>
      <path class="cls-10" d="m657.01,276.26c4.41-3.05,9.75-4.84,15.52-4.84,15.07,0,27.28,12.21,27.28,27.28,0,15.07-12.21,27.28-27.28,27.28s-27.28-12.21-27.28-27.28c0-9.3,4.65-17.51,11.76-22.44"/>
      <path class="cls-9" d="m61.61,276.26c4.41-3.05,9.75-4.84,15.52-4.84,15.07,0,27.28,12.21,27.28,27.28,0,15.07-12.21,27.28-27.28,27.28s-27.28-12.21-27.28-27.28c0-9.3,4.65-17.51,11.76-22.44"/>
    </g>
    <g>
      <rect class="cls-7" x="18.62" y="11.22" width="66.52" height="66.52" rx="6.38" ry="6.38" transform="translate(-9.2 13.84) rotate(-13.97)"/>
      <g>
        <path class="cls-1" d="m62.16,43.12l4.83,2.91c1.4.82,3.2.35,4.02-1.05.81-1.38.37-3.15-.99-3.99l-11.95-7.19c-2.17-1.31-4.13-.99-5.68,1.57l-.45.74c-.87,1.37-2.68,1.78-4.05.91-1.33-.84-1.76-2.58-.98-3.94l1.52-2.51c1.75-2.91,2.86-4.08,4.82-4.57l2.69-.67c.26-.06.53-.02.76.11l14.61,8.79c.47.28.63.9.34,1.37l-2.82,4.69"/>
        <path class="cls-1" d="m62.15,43.12l6.95,4.18c.22.13.4.35.46.6.85,3.48-2.23,5.19-4.35,3.92l-5.55-3.34"/>
        <path class="cls-1" d="m59.66,48.48l4.29,2.58c1.36.88,1.75,2.7.86,4.06-.84,1.29-2.54,1.72-3.89.97l-2.52-1.51"/>
        <path class="cls-1" d="m58.69,54.75l1.24.75c1.37.87,1.77,2.69.9,4.06-.84,1.32-2.57,1.75-3.93.98l-1.24-.75m-20.55-11.1l-4.88-2.94c-.47-.28-.63-.9-.34-1.37l7.55-12.55c.28-.46.86-.62,1.33-.36.69.36,1.67.77,2.42.58,1.55-.39,1.8-.98,2.5-2.13,1.14-1.89,3.43-2.41,5.81-.98"/>
        <path class="cls-1" d="m40.94,50.37c.88-1.36.49-3.18-.87-4.06-1.36-.88-3.18-.49-4.06.87-.03.05-.07.11-.1.16l-1.51,2.52c-.81,1.41-.32,3.2,1.09,4.01,1.36.78,3.1.35,3.94-.98l1.51-2.52Z"/>
        <path class="cls-1" d="m46.49,52.53c.13-.22.19-.49.12-.75-.88-3.47-4.4-3.54-5.68-1.42h0l-2.27,3.77c-.81,1.41-.32,3.2,1.09,4.01,1.36.78,3.1.35,3.94-.98l2.79-4.63Zm4.51,3.89c.8-1.41.3-3.2-1.12-4-1.36-.76-3.07-.34-3.91.97l-1.51,2.52c-.8,1.41-.31,3.2,1.11,4,1.36.77,3.09.34,3.93-.98l1.51-2.51Z"/>
        <path class="cls-1" d="m56.39,58.86c.13-.22.19-.49.12-.75-.88-3.47-4.4-3.54-5.68-1.42h0l-.75,1.24c-.81,1.4-.33,3.2,1.07,4.01,1.37.79,3.12.36,3.96-.98l1.27-2.1Z"/>
      </g>
    </g>
    <g>
      <rect class="cls-7" x="622.28" y="63.47" width="100.5" height="100.5" rx="9.64" ry="9.64" transform="translate(51.9 -169.2) rotate(14.91)"/>
      <g>
        <path class="cls-1" d="m703.72,99.22c-9.64-2.45-17.85-8.75-22.71-17.42-8.53,5.11-18.78,6.51-28.37,3.86,0,0-12.41,37.72,11.41,59.99,31.73-7.52,39.67-46.43,39.67-46.43Z"/>
        <path class="cls-1" d="m688.63,108.88l-18.86,10.94-5.47-9.43"/>
      </g>
    </g>
  </g>
</svg>