<svg width="42" height="31" viewBox="0 0 42 31" fill="none" xmlns="http://www.w3.org/2000/svg">
<path d="M35.1708 11.6033L28.3839 18.5238M13.6161 18.5238L6.82917 11.6033M15.2587 13.4557C14.327 12.6324 13.9561 12.3259 13.1347 11.6536C11.5981 10.4003 9.78767 10.2951 8.93103 11.4111C8.61751 11.8182 8.3614 12.4174 8.27751 13.0761L6.52449 11.2922C6.43617 11.2007 6.39643 11.1093 6.39202 10.9812L6.12707 3.99207C6.01227 1.27967 4.29016 1.01895 3.76911 1.00065C3.19507 0.986928 2.36492 1.18819 1.75556 1.80568C1.24776 2.32712 0.987234 3.04067 1.00048 3.87772L1.16828 14.9972C1.18152 15.9989 1.94102 17.2476 2.34726 17.5952C3.73378 18.7799 4.95692 19.6718 6.03876 20.4586C9.30194 22.8416 10.9402 24.0355 11.1389 28.98C11.1609 29.5517 11.6908 29.5883 11.9469 29.6021L12.5784 29.6432C13.1038 29.6752 13.8103 29.7164 14.5522 29.7621C16.1286 29.8582 17.9125 29.9634 18.2525 29.9909C18.2702 29.9909 18.2878 29.9909 18.3055 29.9909C18.6146 29.9909 18.8751 29.753 18.9149 29.4328C19.0915 27.8822 19.2902 17.8056 18.3232 16.6621C16.7909 14.86 15.8813 14 15.2631 13.4512L15.2587 13.4557ZM40.2489 1.81025C39.6395 1.18819 38.8138 0.986928 38.2353 1.00522C37.7098 1.01895 35.9877 1.28424 35.8729 3.99664L35.608 10.9812C35.6036 11.1093 35.5638 11.2007 35.4755 11.2922L33.7225 13.0807C33.643 12.422 33.3869 11.8228 33.069 11.4157C32.2079 10.2997 30.4019 10.4049 28.8608 11.6581C28.0395 12.3259 27.673 12.637 26.7369 13.4603C26.1187 14.0092 25.2091 14.8691 23.6768 16.6713C22.7098 17.8102 22.9041 27.8914 23.0851 29.442C23.1205 29.7621 23.3854 30 23.6945 30C23.7122 30 23.7298 30 23.7475 30C24.0875 29.9726 25.8714 29.8628 27.4478 29.7713C28.1897 29.7256 28.8962 29.6844 29.4216 29.6524L30.0531 29.6112C30.3092 29.5929 30.8391 29.5609 30.8611 28.9846C31.0598 24.04 32.6981 22.8462 35.9612 20.4631C37.0431 19.6764 38.2662 18.7799 39.6527 17.5998C40.059 17.2522 40.8185 16.0035 40.8317 15.0018L40.9995 3.88229C41.0128 3.04524 40.7522 2.33169 40.2444 1.81483L40.2489 1.81025Z" stroke="url(#paint0_linear_665_126)" stroke-linecap="round" stroke-linejoin="round"/>
<defs>
<linearGradient id="paint0_linear_665_126" x1="21.8001" y1="-1.51139" x2="21.2123" y2="29.9953" gradientUnits="userSpaceOnUse">
<stop stop-color="#AEE0FC"/>
<stop offset="0.5" stop-color="#BFD8FA"/>
<stop offset="1" stop-color="#E4D9FB"/>
</linearGradient>
</defs>
</svg>
