<svg width="67" height="54" viewBox="0 0 67 54" fill="none" xmlns="http://www.w3.org/2000/svg">
<g clip-path="url(#clip0_665_257)">
<path d="M57.7283 44.5846H0.971232C0.710288 44.5846 0.495586 44.3711 0.495586 44.1043V0.981029C0.495586 0.717533 0.706985 0.500732 0.971232 0.500732H57.7316C57.9926 0.500732 58.2073 0.714198 58.2073 0.981029V44.1077C58.2073 44.3711 57.9959 44.5879 57.7316 44.5879L57.7283 44.5846Z" fill="#00003C" stroke="#4200E2" stroke-width="1.25736" stroke-miterlimit="10"/>
<path d="M57.7283 44.5843H0.971223C0.710278 44.5843 0.495577 44.4175 0.495577 44.2074V10.4099C0.495577 10.2031 0.706975 10.033 0.971223 10.033H57.7316C57.9926 10.033 58.2073 10.1997 58.2073 10.4099V44.2074C58.2073 44.4142 57.9959 44.5843 57.7316 44.5843H57.7283Z" stroke="#4200E2" stroke-width="1.25736" stroke-miterlimit="10"/>
<path d="M57.7316 10.3667H0.971223C0.710278 10.3667 0.495577 10.5335 0.495577 10.7436V44.5411C0.495577 44.7479 0.710278 44.9147 0.971223 44.9147H57.7316C57.9926 44.9147 58.2073 44.7479 58.2073 44.5411V10.7436C58.2073 10.5335 57.9926 10.3667 57.7316 10.3667ZM4.86888 30.6726C5.04724 30.4925 5.29498 30.3791 5.56913 30.3791H33.3151C33.8635 30.3791 34.3061 30.826 34.3061 31.3797C34.3061 31.6565 34.1938 31.9067 34.0154 32.0868C33.837 32.2669 33.5893 32.3803 33.3151 32.3803H5.56913C5.02082 32.3803 4.5782 31.9333 4.5782 31.3797C4.5782 31.1028 4.69051 30.8527 4.86888 30.6726ZM36.9882 36.7563C36.8098 36.9364 36.5621 37.0498 36.2879 37.0498H5.56913C5.02082 37.0498 4.5782 36.6029 4.5782 36.0492C4.5782 35.7724 4.69051 35.5222 4.86888 35.3421C5.04724 35.162 5.29498 35.0486 5.56913 35.0486H36.2879C36.8362 35.0486 37.2789 35.4955 37.2789 36.0492C37.2789 36.3261 37.1666 36.5762 36.9882 36.7563Z" fill="url(#paint0_linear_665_257)"/>
<path d="M35.842 52.0589C34.6331 52.0589 33.6521 51.0683 33.6521 49.8509C33.6521 48.6334 34.6364 47.6328 35.842 47.6328C37.0476 47.6328 38.0386 48.6268 38.0386 49.8509C38.0386 51.0749 37.0542 52.0589 35.842 52.0589Z" fill="#424DE2"/>
<path d="M64.5789 26.7098C63.37 26.7098 62.389 25.7191 62.389 24.5017C62.389 23.2843 63.3733 22.2837 64.5789 22.2837C65.7846 22.2837 66.7755 23.2776 66.7755 24.5017C66.7755 25.7258 65.7912 26.7098 64.5789 26.7098Z" fill="#424DE2"/>
<path d="M7.68977 22.3738L4.98123 19.1451C4.8491 18.9884 4.8458 18.7549 4.97132 18.5948L7.5114 15.3728" stroke="#00003C" stroke-width="1.5" stroke-miterlimit="10" stroke-linecap="round" stroke-linejoin="round"/>
<path d="M16.4498 15.3728L18.9899 18.5948C19.1187 18.7582 19.1154 18.9884 18.98 19.1451L16.2714 22.3738" stroke="#00003C" stroke-width="1.5" stroke-miterlimit="10" stroke-linecap="round" stroke-linejoin="round"/>
<path d="M10.381 22.0767L13.9384 15.9729" stroke="#00003C" stroke-width="1.5" stroke-miterlimit="10" stroke-linecap="round" stroke-linejoin="round"/>
<path d="M45.5366 25.7092H5.56915C5.02188 25.7092 4.57822 26.1572 4.57822 26.7098C4.57822 27.2625 5.02188 27.7105 5.56915 27.7105H45.5366C46.0839 27.7105 46.5275 27.2625 46.5275 26.7098C46.5275 26.1572 46.0839 25.7092 45.5366 25.7092Z" fill="#424DE2"/>
<path d="M57.7283 44.5846H0.971232C0.710288 44.5846 0.495586 44.3711 0.495586 44.1043V0.981029C0.495586 0.717533 0.706985 0.500732 0.971232 0.500732H57.7316C57.9926 0.500732 58.2073 0.714198 58.2073 0.981029V44.1077C58.2073 44.3711 57.9959 44.5879 57.7316 44.5879L57.7283 44.5846Z" stroke="url(#paint1_linear_665_257)" stroke-width="1.0478" stroke-miterlimit="10"/>
<path d="M47.6802 7.16215C46.5939 7.16215 45.7099 6.26951 45.7099 5.16884C45.7099 4.06818 46.5939 3.18311 47.6802 3.18311C48.7665 3.18311 49.6504 4.07574 49.6504 5.16884C49.6504 6.26195 48.7665 7.16215 47.6802 7.16215Z" fill="#424DE2"/>
<path d="M54.4517 6.5208C53.7746 7.20455 52.6714 7.20455 51.9942 6.5208C51.3171 5.83704 51.3171 4.72636 51.9942 4.0426C52.6714 3.35885 53.7746 3.35885 54.4517 4.0426C55.1289 4.72636 55.1289 5.84038 54.4517 6.52413V6.5208Z" stroke="#AED5FD" stroke-width="0.41912" stroke-miterlimit="10"/>
<path d="M51.9941 4.03931L54.4516 6.52084" stroke="#AED5FD" stroke-width="0.41912" stroke-miterlimit="10"/>
<path d="M51.9941 6.51742L54.4483 4.03589" stroke="#AED5FD" stroke-width="0.41912" stroke-miterlimit="10"/>
<path d="M19.6073 45.2217C17.9624 48.437 18.1474 50.4416 19.3596 52.0393C22.2135 55.7983 32.9353 52.4595 44.3673 44.5813C45.7018 43.6641 47.0462 42.6835 48.3905 41.6428C52.1395 38.741 55.4624 35.7092 58.2073 32.7674C64.8697 25.6263 68.1364 19.0089 65.8771 16.0337C64.6285 14.386 62.5773 13.0085 58.9142 13.869" stroke="#424DE2" stroke-miterlimit="10" stroke-linecap="round" stroke-dasharray="3 3"/>
</g>
<defs>
<linearGradient id="paint0_linear_665_257" x1="29.8238" y1="7.37485" x2="28.975" y2="42.9764" gradientUnits="userSpaceOnUse">
<stop stop-color="#AEE0FC"/>
<stop offset="0.5" stop-color="#BFD8FA"/>
<stop offset="1" stop-color="#E4D9FB"/>
</linearGradient>
<linearGradient id="paint1_linear_665_257" x1="0.0826994" y1="22.541" x2="58.6169" y2="22.541" gradientUnits="userSpaceOnUse">
<stop stop-color="#E3CDFE"/>
<stop offset="1" stop-color="#AAD5F5"/>
</linearGradient>
<clipPath id="clip0_665_257">
<rect width="67" height="54" fill="white"/>
</clipPath>
</defs>
</svg>
