<svg width="127" height="36" xmlns="http://www.w3.org/2000/svg" viewBox="0 0 1005.83 298.36"><defs><style>.cls-1{fill:#fff;}.cls-2{fill:#4865ff;}.cls-3{fill:#4ed8be;}.cls-4{fill:#ff2ba5;}</style></defs><g id="Layer_2" data-name="Layer 2"><g id="v2_copy" data-name="v2 copy"><path class="cls-1" d="M384.2,260.23H347.61V15.49H384.2Z"/><path class="cls-1" d="M562.17,260.23H527V139.5a222.82,222.82,0,0,1,2.19-26.59l-31.59,125H479l-31.74-125a229.59,229.59,0,0,1,2.19,26.59V260.23H414.23V15.49h34.56l38.47,135.27q.63,2.19.94,11.1a91.35,91.35,0,0,1,.94-11.1L527.61,15.49h34.56Z"/><path class="cls-1" d="M709.64,237.86q0,22.37-22,22.37H613.93q-22.2,0-22.2-22.37V186h36v42.84h45.67V155.14H612.52q-21.74,0-21.73-22V38q0-22.53,21.73-22.52h74.76q22.35,0,22.36,22.52ZM673.36,124.17V46.92H626.6v77.25Z"/><path class="cls-1" d="M859.14,237.86q0,22.37-22,22.37H760.78q-21.74,0-21.74-22.37V38q0-22.53,22.21-22.52h75.84q22,0,22,22.52Zm-35.81-9.07V46.92H775V228.79Z"/><path class="cls-1" d="M1005.83,237.86q0,22.37-22.2,22.37H910q-22.05,0-22.05-22.37V179.53h36.59v49.89h44.73v-48L895.89,112q-8-7.67-8-19.55V38q0-22.53,22.05-22.52h73.66q22.2,0,22.2,22.2V92.43H969.24V46.29H924.51V90.55l73.35,69.12q8,7.52,8,19.86Z"/><polygon class="cls-2" points="148.5 63.65 148.5 0 110.22 63.65 148.5 63.65"/><polygon class="cls-3" points="148.51 63.65 148.51 0 186.79 63.65 148.51 63.65"/><polygon class="cls-3" points="68.52 178.66 22.2 226.04 22.2 240.67 68.52 239.77 68.52 178.66"/><polygon class="cls-3" points="193.6 190.64 251.72 226.49 264.77 245.96 263.66 253.93 193.6 253.93 193.6 190.64"/><path class="cls-2" d="M98.63,247.29q0,18.57-18.3,18.56H19.21Q.77,265.85.78,247.29v-1.06l25.63-24.07v17.61H68.52V178.64H18q-18,0-18-18.29V81.44Q0,62.76,18,62.76h62q18.56,0,18.56,18.68Z"/><path class="cls-3" d="M198.31,247.29q0,18.57-18.29,18.56H116.69q-18,0-18-18.56V81.44q0-18.68,18.43-18.68H180q18.28,0,18.29,18.68Z"/><path class="cls-2" d="M172.42,239.77v-127a23.88,23.88,0,0,0-23.87-23.88h0a23.88,23.88,0,0,0-23.88,23.88V239.77Z"/><path class="cls-4" d="M167.15,271.53c0,9.9-17.92,26.83-17.92,26.83s-17.92-16.93-17.92-26.83a17.92,17.92,0,0,1,35.84,0Z"/><path class="cls-2" d="M272.19,230.1a36.82,36.82,0,0,1-2.88,14.52,37.39,37.39,0,0,1-5.66,9.3c-.06-6.21-3.07-11.63-8.65-14.42l-46.83-25.24a37.36,37.36,0,0,1-13.39-13.39,35.32,35.32,0,0,1-5-18.52,37.07,37.07,0,0,1,2.88-14.52,37.58,37.58,0,0,1,5.66-9.3c.06,6.22,3.07,11.64,8.65,14.43l46.83,25.23a37.23,37.23,0,0,1,13.39,13.4A35.22,35.22,0,0,1,272.19,230.1Z"/><path class="cls-2" d="M231,248.42a18.66,18.66,0,1,1-18.66-18.66A18.66,18.66,0,0,1,231,248.42Z"/><path class="cls-2" d="M220.26,154.84a11.95,11.95,0,1,1,12,11.95A11.95,11.95,0,0,1,220.26,154.84Z"/><path class="cls-1" d="M30.76,160.37h-9.6V83.54h9.6Z"/><path class="cls-1" d="M77.43,160.37H68.2V116.06a58.76,58.76,0,0,1,.57-7l-8.28,32.76H55.61l-8.33-32.76a58.63,58.63,0,0,1,.58,7v44.31H38.63V83.54h9.06L57.78,119a17.18,17.18,0,0,1,.25,2.91,24.86,24.86,0,0,1,.24-2.91L68.36,83.54h9.07Z"/></g></g></svg>