<?xml version="1.0" encoding="utf-8"?>
<!-- Generator: Adobe Illustrator 22.0.1, SVG Export Plug-In . SVG Version: 6.00 Build 0)  -->
<svg width="127" height="36" version="1.1" id="Layer_1" xmlns="http://www.w3.org/2000/svg" xmlns:xlink="http://www.w3.org/1999/xlink" x="0px" y="0px"
	 viewBox="0 0 127 36" style="enable-background:new 0 0 127 36;" xml:space="preserve">
<style type="text/css">
	.st0{fill:#FFFFFF;}
	.st1{font-family:'AgencyFB-Reg';}
	.st2{font-size:23.8166px;}
	.st3{letter-spacing:2;}
	.st4{fill:#4ED8BE;}
	.st5{fill:#2F5DFF;}
	.st6{fill:#FF2BA5;}
	.st7{fill:#003AEB;}
</style>
<title>Commlabs</title>
<g>
	<text transform="matrix(1 0 0 1 39.0518 27.1934)" class="st0 st1 st2 st3">Commlabs</text>
</g>
<g>
	<polygon class="st0" points="17.9,8.1 17.9,0.6 13.5,8.1 	"/>
	<polygon class="st4" points="17.9,8.1 17.9,0.6 22.4,8.1 	"/>
	<polygon class="st4" points="8.6,21.5 3.2,27 3.2,28.7 8.6,28.6 	"/>
	<polygon class="st4" points="23.2,22.9 30,27 31.5,29.3 31.4,30.2 23.2,30.2 	"/>
	<path class="st4" d="M23.7,29.5c0,1.4-0.7,2.2-2.1,2.2h-7.4c-1.4,0-2.1-0.7-2.1-2.2V10.1c0-1.5,0.7-2.2,2.1-2.2h7.3
		c1.4,0,2.1,0.7,2.1,2.2V29.5z"/>
	<path class="st5" d="M20.7,28.6V13.8c0-1.5-1.2-2.8-2.8-2.8h0c-1.5,0-2.8,1.2-2.8,2.8v14.8H20.7z"/>
	<path class="st6" d="M20.1,32.3c0,1.8-2.1,3.7-2.1,3.7s-2.1-1.8-2.1-3.7c0-1.2,0.9-2.1,2.1-2.1C19.2,30.2,20.1,31.1,20.1,32.3z"/>
	<path class="st0" d="M32.4,27.5c0,0.6-0.1,1.2-0.3,1.7c-0.2,0.4-0.4,0.8-0.7,1.1c0-0.7-0.4-1.4-1-1.7l-5.5-2.9
		c-0.6-0.4-1.2-0.9-1.6-1.6c-0.4-0.7-0.6-1.4-0.6-2.2c0-0.6,0.1-1.2,0.3-1.7c0.2-0.4,0.4-0.8,0.7-1.1c0,0.7,0.4,1.4,1,1.7l5.5,2.9
		c0.6,0.4,1.2,0.9,1.6,1.6C32.2,26,32.4,26.7,32.4,27.5z"/>
	<path class="st0" d="M27.6,29.6c0,1.2-1,2.2-2.2,2.2s-2.2-1-2.2-2.2c0-1.2,1-2.2,2.2-2.2S27.6,28.4,27.6,29.6z"/>
	<path class="st0" d="M26.3,18.7c0-0.8,0.6-1.4,1.4-1.4c0.8,0,1.4,0.6,1.4,1.4c0,0.8-0.6,1.4-1.4,1.4C26.9,20.1,26.3,19.5,26.3,18.7
		z"/>
	<path class="st7" d="M10,7.9H2.7c-1.4,0-2.1,0.7-2.1,2.2v9.2c0,1.4,0.7,2.1,2.1,2.1h5.9v7.1H3.7v-2.1l-3,2.9v0.1
		c0,1.4,0.7,2.2,2.1,2.2H10c1.4,0,2.1-0.7,2.1-2.2V10.1C12.1,8.7,11.4,7.9,10,7.9z M4,19.2H2.8v-9H4V19.2z M9.8,19.2H8.7v-5
		c0-0.2,0-0.5,0.1-0.9l-1,4.1H7.1l-1-4.1c0,0.4,0.1,0.7,0.1,0.9v5H5v-9h1.1l1.3,4.4c0,0,0,0.2,0,0.4c0-0.1,0-0.2,0-0.4l1.3-4.4h1.1
		V19.2z"/>
</g>
</svg>
