<svg width="127" height="36"
	xmlns="http://www.w3.org/2000/svg" viewBox="0 0 947.49 279.72">
	<defs>
		<style>.cls-1{fill:#4da6bd;}.cls-2{fill:#3f93ac;}</style>
	</defs>
	<title>Commlabs</title>
	<g id="Commlabs" data-name="Commlabs">
		<g id="Commlabs1-2" data-name="Commlabs1">
			<path class="cls-1" d="M806.11,214.23c-3.18,1.6-5.74,3.81-8.48,4.07-5.4.52-11.27,1.13-16.23-.53-3.87-1.29-6.28-2-9,1.23-7.59,9.21-20.38,9.46-29-1.35-3.46-4.31-7.88-7.81-11.5-12-7.11-8.28-7-17.33.44-25.22,3.29-3.48,4.43-5.74,1.94-10.91-2.09-4.36-1.06-10.57-.48-15.85.33-3,2.53-5.83,4.1-9.18l-23.3-3.87c-4.78-.79-9.11-3.69-7.29-8.45a172.79,172.79,0,0,1,14.78-30.35c2.36-3.73,8.53-5.83,13.34-6.86a274,274,0,0,1,29.44-4.13c6.38-.66,10.44-3.91,14.64-8.77C794.29,64.92,809.36,48,825.06,31.72,844.6,11.47,870.57,6.86,896.65,3.2,906,1.88,915.47,1.07,924.89.15,939.83-1.3,949.12,7.79,947.26,23c-2.53,20.6-5.41,41.19-9,61.63-3.22,18.48-13.84,33.31-26.48,46.06-15,15.16-31.46,28.88-47.06,43.45a15.21,15.21,0,0,0-4.07,7.92c-2.31,12.71-3.86,25.57-6.31,38.24-1.43,7.39-6.33,12.61-13,15.75q-9.83,4.59-19.82,8.8c-6.15,2.6-10.2.45-11.48-6.32C808.57,230.81,807.51,223,806.11,214.23ZM748,185.56a.67.67,0,0,0-.89-.1c-8.47,6.48-8.47,7.12-1.11,14.85a87.94,87.94,0,0,0,6.33,6.46c2.67,2.28,6,6.87,8.07,5.46,3.38-2.25,10.19-6.54,8-9.22-2-2.37-4.83-4.59-3-6.95,1.26-1.62,5.81-7.05,7.93-5A148.46,148.46,0,0,1,783.69,202c3.71,4.31,7.15,4.74,12.26,1.66,36.56-22.08,71.65-46.16,101.53-77.28,13.32-13.86,25.45-28.92,28.42-49,2.8-19,4.87-38.05,7.27-57.09.66-5.18-2-5.95-6.3-5.46-12.09,1.34-24.2,2.64-36.33,3.53-32.21,2.38-56.5,19.54-76.7,43.52-7.59,9-14.66,18.37-21.73,27.71-6.32,8.35-10.58,18.76-20.75,23.89a6.14,6.14,0,0,1-2.56.8,4.45,4.45,0,0,1-3.45-1.79c-.87-1.09-2.63-7.17-4.57-6.87-4.41.67-10.25,2.07-16.14,2.35-13,.61-14.61,1-20,19.91a48.64,48.64,0,0,1,7.21,1.41c9.62,3.37,17.13,2.22,21.37-8.68,1.7-4.38,5.67-6,9.85-3.24s4,6.65,1.55,10.68c-5.33,8.87-10.44,17.89-16,26.6-3.3,5.14-3.17,9,1.49,13.22s9.42,8.56,12.92,13.71c1.4,2.07-1.71,4.21-4.75,7.22a4.44,4.44,0,0,1-5,.59A48.1,48.1,0,0,1,748,185.56Zm74.58,43c19.79-7.49,22.06-11.79,19.85-37.91-7.51,4.92-14.59,9.41-21.45,14.22-1,.74-1.7,3-1.51,4.48C820.21,215.59,821.39,221.78,822.53,228.57Z" fill="#fff"/>
			<path class="cls-1" d="M673.38,259.88c1.4-13.47,6.52-29.41,7.56-32.69,3.77-11.79,15.62-19.31,28.41-19.49,14.44-.2,26.22,7.2,31.58,18.67,8.17,17.52,2.24,42.62-20.43,47.77C708,277,695,278.05,682.25,279.64,673.64,280.71,672.21,271.16,673.38,259.88ZM688.66,266c10.07-1.6,19.71-2.23,28.82-4.8,12.19-3.44,17.06-17.61,10.77-28.77-3.73-6.6-9.46-10.93-16.82-11-6.81,0-13.66,2.29-16.95,9.16C689.41,241.16,687.7,252.53,688.66,266Z" fill="#fff"/>
			<path class="cls-1" d="M853.2,69.93c-4.27-5.87-4-9.38,1.64-13.29,9.64-6.69,19.93-8,30.69-2.8,11.08,5.4,16.09,14.78,16.63,26.73a14.5,14.5,0,0,1-1.67,8c-1.09,1.73-4.39,3.56-6,3.07-2.06-.62-3.89-3.36-4.9-5.6-.79-1.73-.12-4.1-.16-6.19-.13-7-3.84-11.67-9.77-14.74s-11.34-2.43-16.95,1.22c-2.79,1.82-6.44,2.3-9.71,3.38Z" fill="#fff"/>
			<path class="cls-1" d="M853,69.72c1,3.21,2.78,6.38,2.9,9.62.53,14.38,12.71,21.69,25.69,15.15,1.62-.82,3.51-2.23,5-1.94,2.43.49,5.52,1.62,6.62,3.49.84,1.42-.27,5.15-1.74,6.59-8.35,8.24-19,8.53-29.15,5.62-9.82-2.83-16.16-10.48-18.54-20.75a32.45,32.45,0,0,1-.66-8.29c.28-8,2-9.51,10.12-9.27Z" fill="#fff"/>
			<path class="cls-2" d="M0,216.87V37H21.38V216.87Z" fill="#fff"/>
			<path class="cls-2" d="M148.65,223.87,92.75,94.63,70.15,216.87H49.26l36.49-187,62.9,148.79L211.56,29.88l36.49,187H227.16L204.31,94.63Z" fill="#fff"/>
			<path class="cls-2" d="M350.14,141.43a53.64,53.64,0,0,1-13.39,6.4,48,48,0,0,1-14.25,2.09q-24.19,0-39.25-15.42T268.2,94.38q0-27.27,16.95-43.24t46.2-16q24.69,0,39.87,16.28t15.17,42.69q0,25.44-33.79,73.36l-.86,1.22-41,58L292,217.12Zm14.38-49.14q0-18.18-10.08-28.81T327.29,52.86q-16.71,0-26.84,10.81T290.32,92.29q0,18.55,10.13,29.19t27.83,10.62q16.08,0,26.16-11.06T364.52,92.29Z" fill="#fff"/>
			<path class="cls-2" d="M476.93,221.66q-29.12,0-45.88-24.88t-16.77-68.5q0-43.35,16.64-68.24t45.52-24.88q29.49,0,46.08,24.58t16.59,68.54q0,43.88-16.53,68.62T476.93,221.66Zm-.24-17.57q19.77,0,30-19.22T517,128.54Q517,91.31,506.73,72t-30-19.35q-19.05,0-29.67,19.84t-10.63,55.6q0,36,10.63,56T476.69,204.09Z" fill="#fff"/>
			<path class="cls-2" d="M638,117q17.57,7.49,26.48,19.9t8.91,29.36q0,24.83-15.79,40t-41.84,15.18q-21.25,0-35.63-10.88t-19.41-30.9l19.41-9.58q3.95,16.35,13,24.76t22.67,8.41q16.1,0,26-9.27t10-24.14a33.06,33.06,0,0,0-7-20.95q-6.93-8.9-20.94-15.05L602,124.48q-17.94-7.49-26.72-19.29t-8.79-28.25q0-19.17,14.26-31.7t36.36-12.53q16.21,0,28.07,6.88a46.68,46.68,0,0,1,18.5,20.27L646,71.16q-6-10.44-13.51-15.54a29.44,29.44,0,0,0-17-5.1q-12.06,0-19.72,7.37t-7.68,18.8A24.9,24.9,0,0,0,594,93.28q5.9,7,18.3,12.41Z" fill="#fff"/>
		</g>
	</g>
</svg>