<svg width="127" height="36" viewBox="0 0 226 63" fill="none" xmlns="http://www.w3.org/2000/svg">
<style type="text/css">
	.st0{fill:#FFFFFF;}
	.st1{font-family:'AgencyFB-Reg';}
	.st2{font-size:23.8166px;}
	.st3{letter-spacing:2;}
	.st4{fill:#4ED8BE;}
	.st5{fill:#00004D;}
	.st6{fill:#FF2BA5;}
	.st7{fill:#003AEB;}
</style>
<path d="M53.8933 9.78808C48.2333 4.03311 40.3722 0.475494 31.6725 0.475494C14.4304 0.475494 0.48999 14.392 0.48999 31.6046C0.48999 48.8172 14.4304 62.7338 31.6725 62.7338C48.9146 62.7338 62.8551 48.8172 62.8551 31.6046H31.6725L53.8933 9.78808Z" fill="#160E52"/>
<g opacity="0.6">
<path d="M51.6922 20.0947C55.0987 26.0066 48.9146 35.9993 37.8566 42.3821C26.7986 48.7649 15.0593 49.1311 11.6528 43.1669C8.24633 37.2026 14.4304 27.2622 25.4884 20.8795C36.5464 14.4967 48.2858 14.1305 51.6922 20.0947Z" fill="url(#paint0_linear_402_2242)"/>
</g>
<path d="M31.6725 45.8351C39.5452 45.8351 45.9273 39.4639 45.9273 31.6046C45.9273 23.7454 39.5452 17.3742 31.6725 17.3742C23.7997 17.3742 17.4176 23.7454 17.4176 31.6046C17.4176 39.4639 23.7997 45.8351 31.6725 45.8351Z" fill="#101111"/>
<path d="M31.6725 45.8351C39.5452 45.8351 45.9273 39.4639 45.9273 31.6046C45.9273 23.7454 39.5452 17.3742 31.6725 17.3742C23.7997 17.3742 17.4176 23.7454 17.4176 31.6046C17.4176 39.4639 23.7997 45.8351 31.6725 45.8351Z" fill="#101111"/>
<path d="M31.6725 45.8351C39.5452 45.8351 45.9273 39.4639 45.9273 31.6046C45.9273 23.7454 39.5452 17.3742 31.6725 17.3742C23.7997 17.3742 17.4176 23.7454 17.4176 31.6046C17.4176 39.4639 23.7997 45.8351 31.6725 45.8351Z" fill="#101111"/>
<path d="M91.2601 24.4894L87.906 27.7854H78.6298V40.3417H90.1071V43.6377H78.6298C77.5817 43.6377 76.6908 43.2715 75.9046 42.5391C75.1709 41.8066 74.8041 40.8649 74.8041 39.8185V28.3086C74.8041 27.2623 75.1709 26.3728 75.9046 25.5881C76.6383 24.8556 77.5817 24.4894 78.6298 24.4894H91.2601Z" fill="url(#paint1_linear_402_2242)"/>
<path d="M112.642 39.8185C112.642 40.8649 112.275 41.7543 111.542 42.5391C110.808 43.2715 109.865 43.6377 108.817 43.6377H97.3393C96.2912 43.6377 95.4002 43.2715 94.6141 42.5391C93.8804 41.8066 93.5135 40.8649 93.5135 39.8185V28.3086C93.5135 27.2623 93.8804 26.3728 94.6141 25.5881C95.3478 24.8556 96.2912 24.4894 97.3393 24.4894H108.817C109.865 24.4894 110.756 24.8556 111.542 25.5881C112.275 26.3205 112.642 27.2623 112.642 28.3086V39.8185ZM108.817 40.3417V27.7854H97.3393V40.3417H108.817Z" fill="url(#paint2_linear_402_2242)"/>
<path d="M131.509 32.1278H127.683V27.7331H120.032V43.5854H116.206V24.4894H120.032V27.2099L122.757 24.4894H127.683C128.731 24.4894 129.622 24.8556 130.409 25.5881C131.142 26.3205 131.509 27.2623 131.509 28.3086V32.1278Z" fill="url(#paint3_linear_402_2242)"/>
<path d="M153.835 39.8185C153.835 40.8649 153.468 41.7543 152.734 42.5391C152 43.2715 151.057 43.6377 150.009 43.6377H138.532V52.1656H134.706V24.4894H138.532V27.2099L141.257 24.4894H150.009C151.057 24.4894 151.948 24.8556 152.734 25.5881C153.468 26.3205 153.835 27.2623 153.835 28.3086V39.8185ZM149.957 40.3417V27.7854H138.479V43.1146L141.204 40.394H149.957V40.3417Z" fill="url(#paint4_linear_402_2242)"/>
<path d="M161.748 43.6377H157.923V18.996L161.748 15.1768V43.6377Z" fill="url(#paint5_linear_402_2242)"/>
<path d="M185.227 43.6377H181.401V40.8649L178.099 43.6377H169.871C168.823 43.6377 167.932 43.2715 167.146 42.5391C166.413 41.8066 166.046 40.8649 166.046 39.8185V35.9993C166.046 34.953 166.413 34.0636 167.146 33.2788C167.88 32.5464 168.823 32.1801 169.871 32.1801H180.825L177.523 35.4238H169.871V40.394H181.349V27.8377H165.993L169.295 24.5417H181.349C182.397 24.5417 183.288 24.9079 184.074 25.6404C184.808 26.3728 185.174 27.3146 185.174 28.3609V43.6377H185.227Z" fill="url(#paint6_linear_402_2242)"/>
<path d="M208.182 39.8185C208.182 40.8649 207.815 41.7543 207.081 42.5391C206.347 43.2715 205.404 43.6377 204.356 43.6377H192.878V40.394L189.053 44.1609V18.996L192.878 15.1768V27.2099L195.604 24.4894H204.356C205.404 24.4894 206.295 24.8556 207.081 25.5881C207.815 26.3205 208.182 27.2623 208.182 28.3086V39.8185ZM204.356 40.3417V27.7854H192.878V40.3417H204.356Z" fill="url(#paint7_linear_402_2242)"/>
<path d="M226 24.4894L222.646 27.7854H214.47V32.1801H222.122C223.17 32.1801 224.061 32.5464 224.847 33.2788C225.581 34.0113 225.948 34.953 225.948 35.9993V39.8185C225.948 40.8649 225.581 41.7543 224.847 42.5391C224.113 43.2715 223.17 43.6377 222.122 43.6377H210.645V40.3417H222.122V35.4238H214.47C213.422 35.4238 212.531 35.0576 211.745 34.3252C211.011 33.5927 210.645 32.651 210.645 31.6046V28.3086C210.645 27.2623 211.011 26.3728 211.745 25.5881C212.479 24.8556 213.422 24.4894 214.47 24.4894H226Z" fill="url(#paint8_linear_402_2242)"/>
<defs>
<linearGradient id="paint0_linear_402_2242" x1="53.2797" y1="14.2735" x2="13.8497" y2="46.0204" gradientUnits="userSpaceOnUse">
<stop stop-color="#8E9BFF" stop-opacity="0.3"/>
<stop offset="0.1997" stop-color="#5E66D4" stop-opacity="0.5585"/>
<stop offset="0.309" stop-color="#484EC0" stop-opacity="0.7"/>
<stop offset="0.3468" stop-color="#4146BA" stop-opacity="0.7164"/>
<stop offset="0.5202" stop-color="#2528A0" stop-opacity="0.7917"/>
<stop offset="0.6898" stop-color="#10128E" stop-opacity="0.8653"/>
<stop offset="0.8523" stop-color="#040483" stop-opacity="0.9359"/>
<stop offset="1" stop-color="#00007F"/>
</linearGradient>
<linearGradient id="paint1_linear_402_2242" x1="74.2911" y1="34.0636" x2="214.282" y2="34.0636" gradientUnits="userSpaceOnUse">
<stop offset="2.1651e-07" stop-color="#433B9D"/>
<stop offset="0.6093" stop-color="#6E4DDB" stop-opacity="0.4699"/>
<stop offset="1" stop-color="#8657FF" stop-opacity="0.13"/>
</linearGradient>
<linearGradient id="paint2_linear_402_2242" x1="74.3101" y1="34.0636" x2="214.301" y2="34.0636" gradientUnits="userSpaceOnUse">
<stop offset="2.1651e-07" stop-color="#433B9D"/>
<stop offset="0.6093" stop-color="#6E4DDB" stop-opacity="0.4699"/>
<stop offset="1" stop-color="#8657FF" stop-opacity="0.13"/>
</linearGradient>
<linearGradient id="paint3_linear_402_2242" x1="74.2911" y1="34.0636" x2="214.282" y2="34.0636" gradientUnits="userSpaceOnUse">
<stop offset="2.1651e-07" stop-color="#433B9D"/>
<stop offset="0.6093" stop-color="#6E4DDB" stop-opacity="0.4699"/>
<stop offset="1" stop-color="#8657FF" stop-opacity="0.13"/>
</linearGradient>
<linearGradient id="paint4_linear_402_2242" x1="74.2911" y1="38.337" x2="214.282" y2="38.337" gradientUnits="userSpaceOnUse">
<stop offset="2.1651e-07" stop-color="#433B9D"/>
<stop offset="0.6093" stop-color="#6E4DDB" stop-opacity="0.4699"/>
<stop offset="1" stop-color="#8657FF" stop-opacity="0.13"/>
</linearGradient>
<linearGradient id="paint5_linear_402_2242" x1="74.2913" y1="29.4083" x2="214.282" y2="29.4083" gradientUnits="userSpaceOnUse">
<stop offset="2.1651e-07" stop-color="#433B9D"/>
<stop offset="0.6093" stop-color="#6E4DDB" stop-opacity="0.4699"/>
<stop offset="1" stop-color="#8657FF" stop-opacity="0.13"/>
</linearGradient>
<linearGradient id="paint6_linear_402_2242" x1="74.291" y1="34.0636" x2="214.282" y2="34.0636" gradientUnits="userSpaceOnUse">
<stop offset="2.1651e-07" stop-color="#433B9D"/>
<stop offset="0.6093" stop-color="#6E4DDB" stop-opacity="0.4699"/>
<stop offset="1" stop-color="#8657FF" stop-opacity="0.13"/>
</linearGradient>
<linearGradient id="paint7_linear_402_2242" x1="74.2912" y1="29.6815" x2="214.282" y2="29.6815" gradientUnits="userSpaceOnUse">
<stop offset="2.1651e-07" stop-color="#433B9D"/>
<stop offset="0.6093" stop-color="#6E4DDB" stop-opacity="0.4699"/>
<stop offset="1" stop-color="#8657FF" stop-opacity="0.13"/>
</linearGradient>
<linearGradient id="paint8_linear_402_2242" x1="74.2912" y1="34.0636" x2="214.282" y2="34.0636" gradientUnits="userSpaceOnUse">
<stop offset="2.1651e-07" stop-color="#433B9D"/>
<stop offset="0.6093" stop-color="#6E4DDB" stop-opacity="0.4699"/>
<stop offset="1" stop-color="#8657FF" stop-opacity="0.13"/>
</linearGradient>
</defs>
</svg>
