<svg width="127" height="36" xmlns="http://www.w3.org/2000/svg" viewBox="0 0 656.77 216.99"><defs><style>.cls-1{fill:#4865ff;}.cls-2{fill:#4ed8be;}.cls-3{fill:#fff;}.cls-4{fill:#ff2ba5;}</style></defs><g id="Layer_2" data-name="Layer 2"><g id="Layer_1-2" data-name="Layer 1"><polygon class="cls-1" points="91.86 46.29 91.86 0 64.02 46.29 91.86 46.29"/><polygon class="cls-1" points="91.86 46.29 91.86 0 119.7 46.29 91.86 46.29"/><polygon class="cls-1" points="25.27 134.99 56.84 102.63 56.84 174.17 25.39 174.17 25.27 134.99"/><path class="cls-2" d="M25.27,135,5.89,154.82A20.65,20.65,0,0,0,0,169.27V175l25.39-.87Z"/><path class="cls-1" d="M109.25,174.38V82A17.37,17.37,0,0,0,91.89,64.61h0A17.37,17.37,0,0,0,74.52,82v92.4Z"/><path class="cls-1" d="M181.81,167.34a25.71,25.71,0,0,0-3.64-13.46,27.14,27.14,0,0,0-9.74-9.74l-34.06-18.35a11.45,11.45,0,0,1-6.29-10.45V59.23q0-13.59-13.3-13.59H69q-13.39,0-13.4,13.59V179.85q0,13.5,13.12,13.5h46.06q10.65,0,12.77-8.67h48.06v0a27.11,27.11,0,0,0,4.11-6.75A26.8,26.8,0,0,0,181.81,167.34Z"/><path class="cls-2" d="M128.31,179.87q0,13.49-13.49,13.49h-46q-13.11,0-13.11-13.49V59.33q0-13.57,13.11-13.58h46q13.49,0,13.49,13.58V93.85h-22V64.71H77.75V174.4h28.58v-31h22Z"/><circle class="cls-3" cx="112.75" cy="113.81" r="5.27"/><path class="cls-4" d="M105.42,197.48c0,7.2-13,19.51-13,19.51s-13-12.31-13-19.51a13,13,0,1,1,26.07,0Z"/><path class="cls-3" d="M276.06,173.85q0,9.09-9.09,9.09h-31q-8.83,0-8.84-9.09V107.37q0-9.15,8.84-9.16h31q9.09,0,9.09,9.16v15.9h-14.9V111H242v59.16h19.18v-9.41h14.9Z"/><path class="cls-3" d="M337.54,173.85q0,9.09-9,9.09h-32.3q-8.85,0-8.84-9.09V107.37q0-9.15,8.84-9.16h32.3q9,0,9,9.16Zm-14.88-3.69V111H302.25v59.16Z"/><path class="cls-3" d="M409,182.94H394.69V142.85a91.38,91.38,0,0,1,.89-10.81l-12.84,41.81h-7.57L362.26,132a94.18,94.18,0,0,1,.89,10.81v40.09H348.84V98.21H362.9l15.64,40.22a26.78,26.78,0,0,1,.38,4.51,38.3,38.3,0,0,1,.38-4.51l15.64-40.22H409Z"/><path class="cls-2" d="M480,182.94H465.71V142.85A91.38,91.38,0,0,1,466.6,132l-12.84,41.81h-7.57L433.28,132a91.93,91.93,0,0,1,.89,10.81v40.09h-14.3V98.21h14.05l15.64,40.22a25.69,25.69,0,0,1,.38,4.51,38.3,38.3,0,0,1,.38-4.51L466,98.21h14Z"/><path class="cls-3" d="M499.09,182.94h-3V97.05h3Z"/><path class="cls-3" d="M550.39,171.93a23.23,23.23,0,0,1-9.2,8.78,30.11,30.11,0,0,1-14.81,3.39q-8.31,0-13-4.54T508.6,167.3q0-7.49,7.07-12.55t17.7-5.06h17V141q0-7.44-4.77-11.59t-13.4-4.16q-8.1,0-13,3.91a12.29,12.29,0,0,0-4.92,10.07l-2.48-.11-.11-.27a13.91,13.91,0,0,1,5.39-11.76q5.73-4.81,15.15-4.81t15.36,4.84q5.77,4.85,5.78,14v29.84a50.79,50.79,0,0,0,.36,6.11,38.63,38.63,0,0,0,1.18,5.89h-3.3c-.48-2.6-.8-4.56-1-5.86a34.63,34.63,0,0,1-.24-4.21Zm-24,9.25q8.86,0,15-3.91a22.67,22.67,0,0,0,9-11.18V152.71H533.54q-9.25,0-15.61,4.27t-6.36,10.54a12.91,12.91,0,0,0,4.05,9.83Q519.66,181.18,526.38,181.18Z"/><path class="cls-3" d="M609.42,154.26q0,13.76-5.95,21.8t-16.41,8a25.4,25.4,0,0,1-12.28-2.84,21,21,0,0,1-8.15-7.68l-.38,9.36h-2.48V97.05h3V134A21.93,21.93,0,0,1,587,122.27a19.17,19.17,0,0,1,16.49,8.34q6,8.34,6,22.49Zm-3.09-1.16q0-12.39-5-20.12A16,16,0,0,0,587,125.24c-5.77,0-10.24,1.45-13.44,4.35a24.2,24.2,0,0,0-6.83,10.68v27.92a19.34,19.34,0,0,0,7.38,9.41q5.18,3.53,13,3.52,9.4,0,14.31-7.26t4.9-19.6Z"/><path class="cls-3" d="M654,165.85a11.16,11.16,0,0,0-3.84-8.18q-3.84-3.67-13.4-5.77-10.08-2.15-14.6-5.51t-4.52-10a12.58,12.58,0,0,1,5.12-10.17q5.12-4.09,13.79-4.1,9.36,0,14.74,4.39A13.41,13.41,0,0,1,656.36,138l-.11.32h-2.4a11.84,11.84,0,0,0-4.68-9.43q-4.68-3.9-12.67-3.9t-12,3.43q-4.08,3.42-4.08,7.91a9.88,9.88,0,0,0,3.45,7.58q3.45,3.13,13.69,5.48,9.45,2.19,14.34,6a12.64,12.64,0,0,1,4.88,10.58,12.9,12.9,0,0,1-5.43,10.76q-5.43,4.14-14.42,4.13-9.87,0-15.49-4.41c-3.74-2.95-5.49-6.52-5.25-10.74l.11-.31h2.29Q619,172,624.33,175a25.35,25.35,0,0,0,12.59,3q7.85,0,12.43-3.66C652.42,171.88,654,169.05,654,165.85Z"/></g></g></svg>