<svg width="280" height="280" viewBox="0 0 280 280" fill="none" xmlns="http://www.w3.org/2000/svg">
<path fill-rule="evenodd" clip-rule="evenodd" d="M231.875 207.514C234.534 204.086 237.007 200.508 239.28 196.793C239.419 196.566 239.535 196.325 239.621 196.073C240.548 193.374 241.052 190.479 241.052 187.465C241.052 184.221 240.468 181.112 239.401 178.24C235.655 168.159 225.948 160.977 214.563 160.977C207.993 160.977 201.981 163.369 197.352 167.33C196.783 167.816 196.236 168.326 195.71 168.858C191.466 173.158 188.602 178.741 183.954 182.602C172.804 191.862 158.478 197.431 142.851 197.431C129.867 197.431 117.78 193.586 107.668 186.974C106.71 186.348 105.539 186.123 104.427 186.394L84.0019 191.36C81.0898 192.068 78.4622 189.44 79.1702 186.528L84.8542 163.149C85.0772 162.232 84.9642 161.267 84.5626 160.413C80.6596 152.111 78.4781 142.839 78.4781 133.058C78.4781 97.506 107.299 68.6854 142.851 68.6854C159.225 68.6854 174.172 74.7992 185.532 84.8686C185.822 85.1255 186.068 85.4273 186.277 85.7532C188.005 88.4419 190.258 90.7602 192.893 92.5626C196.714 95.1765 201.335 96.7053 206.314 96.7053C219.458 96.7053 230.113 86.0503 230.113 72.9066C230.113 69.1977 229.264 65.6869 227.751 62.5578C227.66 62.3691 227.551 62.1895 227.428 62.0193C225.675 59.5817 223.83 57.2139 221.9 54.921C216.463 48.4642 210.344 42.6013 203.653 37.4434C185.103 25.1908 162.873 18.058 138.978 18.058C111.452 18.058 86.1357 27.5234 66.108 43.377C42.9633 64.8371 28.478 95.5059 28.478 129.558C28.478 162.217 41.8024 191.764 63.3116 213.06C64.3459 214.084 64.7762 215.577 64.4086 216.985L56.7193 246.439C55.9048 249.559 58.9271 252.31 61.9571 251.208L89.5163 241.182C90.4103 240.857 91.39 240.863 92.2855 241.185C104.684 245.634 118.048 248.058 131.978 248.058C137.221 248.058 142.384 247.715 147.446 247.049C174.404 246.719 199.177 237.31 218.848 221.739C223.567 217.364 227.926 212.606 231.875 207.514Z" fill="url(#paint0_linear_1_932)"/>
<path fill-rule="evenodd" clip-rule="evenodd" d="M64.795 215.505C74.565 228.398 87.7995 238.52 103.112 244.486C98.9491 243.435 94.8744 242.161 90.9014 240.678L61.9571 251.208C58.9271 252.31 55.9049 249.559 56.7193 246.439L64.795 215.505Z" fill="url(#paint1_linear_1_932)"/>
<g filter="url(#filter0_i_1_932)">
<path fill-rule="evenodd" clip-rule="evenodd" d="M147.446 247.049C152.966 246.981 158.394 246.533 163.706 245.729C184.335 242.608 203.205 234.122 218.848 221.739C223.567 217.364 227.926 212.606 231.875 207.514C233.392 205.559 234.848 203.555 236.241 201.505C238.486 198.2 240.396 194.584 240.866 190.616C240.989 189.583 241.052 188.531 241.052 187.465C241.052 184.221 240.468 181.112 239.401 178.24C236.659 170.861 230.723 165.035 223.273 162.442C223.09 162.378 222.905 162.316 222.72 162.256C220.15 161.425 217.409 160.977 214.563 160.977C207.993 160.977 201.981 163.369 197.352 167.33C194.483 169.784 192.145 172.841 190.533 176.305C178.756 189.282 161.755 197.431 142.851 197.431C129.867 197.431 117.78 193.586 107.668 186.974C106.71 186.348 105.539 186.123 104.427 186.394L84.0019 191.36C81.0899 192.068 78.4622 189.44 79.1702 186.528L84.8542 163.149C85.0772 162.232 84.9642 161.267 84.5626 160.413C80.6596 152.111 78.4781 142.839 78.4781 133.058C78.4781 110.838 89.7361 91.2474 106.859 79.6792C107.801 79.0433 108.76 78.4316 109.735 77.8451C73.4103 88.7419 46.942 122.433 46.942 162.305C46.942 180.762 52.6133 197.895 62.3087 212.055C63.5657 213.464 63.7289 213.435 64.3521 214.755L64.795 215.505C74.565 228.397 87.7995 238.52 103.112 244.486L103.184 244.504C112.398 246.825 122.044 248.058 131.978 248.058C137.221 248.058 142.384 247.715 147.446 247.049Z" fill="url(#paint2_linear_1_932)"/>
</g>
<path fill-rule="evenodd" clip-rule="evenodd" d="M189.882 224.845C201.148 224.845 211.921 222.732 221.825 218.88C225.412 215.314 228.77 211.517 231.875 207.514C233.392 205.559 234.848 203.555 236.241 201.505C238.486 198.2 240.396 194.584 240.866 190.616C240.989 189.583 241.052 188.532 241.052 187.465C241.052 184.221 240.468 181.112 239.401 178.24C235.655 168.159 225.948 160.977 214.563 160.977C207.993 160.977 201.981 163.369 197.352 167.33C194.483 169.784 192.145 172.841 190.533 176.305C178.756 189.282 161.755 197.431 142.851 197.431C136.005 197.431 129.409 196.362 123.22 194.383C139.386 213.042 163.256 224.845 189.882 224.845Z" fill="url(#paint3_linear_1_932)"/>
<path fill-rule="evenodd" clip-rule="evenodd" d="M232.959 168.407C220.362 192.124 195.407 208.275 166.68 208.275C150.453 208.275 135.43 203.122 123.158 194.363C129.365 196.355 135.982 197.431 142.851 197.431C158.478 197.431 172.804 191.862 183.954 182.602C188.602 178.741 191.466 173.157 195.71 168.858C196.236 168.326 196.783 167.816 197.352 167.33C201.981 163.369 207.993 160.977 214.563 160.977C221.709 160.977 228.194 163.806 232.959 168.407Z" fill="url(#paint4_linear_1_932)"/>
<path d="M120.478 130.058C120.478 124.535 124.955 120.058 130.478 120.058C136.001 120.058 140.478 124.535 140.478 130.058V136.058C140.478 141.581 136.001 146.058 130.478 146.058C124.955 146.058 120.478 141.581 120.478 136.058V130.058Z" fill="#15026A"/>
<path d="M173.478 130.058C173.478 124.535 177.955 120.058 183.478 120.058C189.001 120.058 193.478 124.535 193.478 130.058V136.058C193.478 141.581 189.001 146.058 183.478 146.058C177.955 146.058 173.478 141.581 173.478 136.058V130.058Z" fill="#15026A"/>
<defs>
<filter id="filter0_i_1_932" x="38.942" y="77.8451" width="202.11" height="186.213" filterUnits="userSpaceOnUse" color-interpolation-filters="sRGB">
<feFlood flood-opacity="0" result="BackgroundImageFix"/>
<feBlend mode="normal" in="SourceGraphic" in2="BackgroundImageFix" result="shape"/>
<feColorMatrix in="SourceAlpha" type="matrix" values="0 0 0 0 0 0 0 0 0 0 0 0 0 0 0 0 0 0 127 0" result="hardAlpha"/>
<feOffset dx="-8" dy="16"/>
<feGaussianBlur stdDeviation="12"/>
<feComposite in2="hardAlpha" operator="arithmetic" k2="-1" k3="1"/>
<feColorMatrix type="matrix" values="0 0 0 0 0 0 0 0 0 0 0 0 0 0 0 0 0 0 0.12 0"/>
<feBlend mode="normal" in2="shape" result="effect1_innerShadow_1_932"/>
</filter>
<linearGradient id="paint0_linear_1_932" x1="89.1125" y1="26.313" x2="162.678" y2="145.376" gradientUnits="userSpaceOnUse">
<stop stop-color="#6022F9"/>
<stop offset="1" stop-color="#4614E0"/>
</linearGradient>
<linearGradient id="paint1_linear_1_932" x1="58.4602" y1="254.672" x2="82.2156" y2="231.683" gradientUnits="userSpaceOnUse">
<stop stop-color="#3909C3"/>
<stop offset="1" stop-color="#4614E0"/>
</linearGradient>
<linearGradient id="paint2_linear_1_932" x1="139.689" y1="190.302" x2="107.504" y2="248.058" gradientUnits="userSpaceOnUse">
<stop stop-color="#15026A"/>
<stop offset="1" stop-color="#3909C3"/>
</linearGradient>
<linearGradient id="paint3_linear_1_932" x1="166.509" y1="220.188" x2="241.052" y2="192.911" gradientUnits="userSpaceOnUse">
<stop stop-color="#3909C3"/>
<stop offset="1" stop-color="#4614E0"/>
</linearGradient>
<linearGradient id="paint4_linear_1_932" x1="219.384" y1="160.977" x2="192.564" y2="191.069" gradientUnits="userSpaceOnUse">
<stop stop-color="#6022FA"/>
<stop offset="1" stop-color="#4614E0"/>
</linearGradient>
</defs>
</svg>
