<?xml version="1.0" encoding="UTF-8"?>
<svg id="Layer_2" data-name="Layer 2" xmlns="http://www.w3.org/2000/svg" xmlns:xlink="http://www.w3.org/1999/xlink" viewBox="0 0 169.8 184.8">
  <defs>
    <style>
      .cls-1 {
        fill: #00003c;
      }

      .cls-2 {
        fill: #424de2;
      }

      .cls-3 {
        fill: url(#linear-gradient-4);
        stroke: #424de2;
        stroke-miterlimit: 10;
        stroke-width: 3.97px;
      }

      .cls-4 {
        stroke: url(#linear-gradient-2);
        stroke-dasharray: 0 0 3.74 3.74;
        stroke-width: 2.45px;
      }

      .cls-4, .cls-5 {
        fill: none;
        stroke-linecap: round;
        stroke-linejoin: round;
      }

      .cls-6 {
        fill: url(#linear-gradient-3);
      }

      .cls-5 {
        stroke: url(#linear-gradient);
        stroke-dasharray: 0 0 3.54 3.54;
        stroke-width: 2.23px;
      }
    </style>
    <linearGradient id="linear-gradient" x1="85.03" y1="79.85" x2="87.26" y2="79.85" gradientUnits="userSpaceOnUse">
      <stop offset="0" stop-color="#aee0fc"/>
      <stop offset=".5" stop-color="#bfd8fa"/>
      <stop offset="1" stop-color="#e4d9fb"/>
    </linearGradient>
    <linearGradient id="linear-gradient-2" x1="47.73" y1="37.17" x2="122.07" y2="37.17" xlink:href="#linear-gradient"/>
    <linearGradient id="linear-gradient-3" x1="75.7" y1="37.17" x2="94.1" y2="37.17" xlink:href="#linear-gradient"/>
    <linearGradient id="linear-gradient-4" x1="1.99" y1="130.09" x2="167.81" y2="130.09" xlink:href="#linear-gradient"/>
  </defs>
  <g id="Layer_1-2" data-name="Layer 1">
    <g>
      <g>
        <line class="cls-5" x1="86.14" y1="86.58" x2="86.14" y2="73.12"/>
        <g>
          <circle class="cls-2" cx="84.9" cy="37.17" r="25.97"/>
          <path class="cls-4" d="m115.89,18.94c3.15,5.34,4.96,11.57,4.96,18.22,0,19.85-16.09,35.94-35.94,35.94s-35.94-16.09-35.94-35.94S65.05,1.22,84.9,1.22c6.55,0,12.69,1.75,17.98,4.81"/>
          <path class="cls-6" d="m85.19,49.03c-1.66,0-3.13-.23-4.4-.68s-2.37-1.07-3.28-1.84c-.59-.5-1.11-1.03-1.56-1.61-.41-.53-.3-1.29.22-1.72l.47-.38c.56-.46,1.38-.32,1.8.26.3.42.64.8,1.02,1.16.7.67,1.54,1.2,2.52,1.59.98.39,2.11.58,3.39.58,1.78,0,3.19-.32,4.24-.97s1.57-1.6,1.57-2.85c0-.74-.25-1.41-.74-2-.49-.59-1.41-1.04-2.76-1.35l-5.41-1.23c-1.44-.34-2.6-.79-3.46-1.35-.87-.56-1.49-1.24-1.88-2.02-.38-.78-.58-1.63-.58-2.54,0-1.25.34-2.39,1.03-3.43.69-1.03,1.67-1.86,2.96-2.49,1.29-.62,2.83-.94,4.63-.94,2.02,0,3.77.41,5.25,1.23,1.15.64,2.15,1.52,2.99,2.66.4.54.29,1.32-.25,1.73l-.35.27c-.57.43-1.37.29-1.78-.28-.66-.92-1.4-1.6-2.19-2.06-1.09-.62-2.41-.94-3.95-.94-1.25,0-2.27.17-3.07.52s-1.38.81-1.77,1.39c-.38.58-.58,1.23-.58,1.95,0,.55.11,1.06.32,1.51.22.46.61.86,1.17,1.21.56.35,1.35.64,2.36.88l5.01,1.12c2.21.48,3.76,1.22,4.63,2.22.88,1,1.32,2.23,1.32,3.7,0,1.32-.37,2.49-1.1,3.5-.73,1.01-1.77,1.8-3.1,2.36-1.33.56-2.9.85-4.71.85Zm-1.37,2.4v-28.53c0-.69.56-1.24,1.24-1.24h0c.69,0,1.24.56,1.24,1.24v28.53c0,.69-.56,1.24-1.24,1.24h0c-.69,0-1.24-.56-1.24-1.24Z"/>
        </g>
      </g>
      <g>
        <path class="cls-3" d="m167.81,159.72c0,10.11-6.61,19.16-16.46,22.12-10.54,3.15-21.86-1.55-27.02-11.27l-2.5-4.67c-.71-1.35-1.42-2.68-2.14-4.02-1.6.5-3.29.76-5.05.76-8.56,0-15.64-6.31-16.85-14.53h-25.79c-1.22,8.22-8.29,14.53-16.86,14.53-1.76,0-3.45-.26-5.04-.76-.73,1.34-1.44,2.67-2.15,4.02l-2.5,4.67c-4.09,7.68-12.03,12.24-20.39,12.24-2.2,0-4.43-.31-6.63-.97-10.55-3.16-17.39-13.33-16.36-24.3l.46-4.99c1.38-14.55,2.39-29.14,3.41-43.7.17-2.46.61-4.94,1.35-7.39,5.39-17.97,24.21-28.05,42.16-22.61,5.58,1.69,10.39,4.7,14.22,8.58h42.42c3.83-3.88,8.65-6.89,14.21-8.58,17.96-5.44,36.78,4.65,42.17,22.61.74,2.45,1.18,4.93,1.35,7.39,1.01,14.57,2.03,29.15,3.41,43.7l.47,4.99c.07.74.1,1.45.1,2.18Z"/>
        <rect class="cls-1" x="87.91" y="125.81" width="13.82" height="5.52" rx="2.76" ry="2.76"/>
        <rect class="cls-1" x="68.07" y="125.81" width="13.83" height="5.52" rx="2.76" ry="2.76"/>
        <path class="cls-2" d="m67.4,144.62c0,.91-.09,1.79-.27,2.64-1.22,6.04-6.57,10.59-12.96,10.59-1.03,0-2.04-.13-3.01-.35-5.85-1.36-10.21-6.61-10.21-12.87,0-7.29,5.93-13.22,13.22-13.22s13.23,5.93,13.23,13.22Z"/>
        <path class="cls-2" d="m128.84,144.62c0,6.26-4.37,11.51-10.21,12.87-.96.22-1.96.35-3.01.35-6.39,0-11.74-4.56-12.96-10.59-.18-.85-.26-1.73-.26-2.64,0-7.29,5.93-13.22,13.22-13.22s13.22,5.93,13.22,13.22Z"/>
        <g>
          <circle class="cls-1" cx="144.7" cy="108.99" r="5.86"/>
          <path class="cls-1" d="m139.88,119.95c0,3.24-2.63,5.86-5.88,5.86s-5.86-2.62-5.86-5.86,2.63-5.86,5.86-5.86,5.88,2.62,5.88,5.86Z"/>
          <path class="cls-1" d="m139.88,98.03c0,3.24-2.63,5.88-5.88,5.88s-5.86-2.63-5.86-5.88,2.63-5.86,5.86-5.86,5.88,2.63,5.88,5.86Z"/>
          <path class="cls-1" d="m128.92,108.73c0,3.24-2.63,5.86-5.86,5.86s-5.88-2.62-5.88-5.86,2.63-5.86,5.88-5.86,5.86,2.62,5.86,5.86Z"/>
        </g>
        <path class="cls-1" d="m53.95,105.08v7.82c0,1.24-1,2.24-2.24,2.24h-9.51v9.52c0,1.24-1.01,2.23-2.24,2.23h-7.82c-1.24,0-2.23-1-2.23-2.23v-9.52h-9.52c-1.24,0-2.24-1.01-2.24-2.24v-7.82c0-1.24,1.01-2.23,2.24-2.23h9.52v-9.52c0-1.24,1-2.24,2.23-2.24h7.82c1.24,0,2.24,1.01,2.24,2.24v9.52h9.51c1.25,0,2.24,1,2.24,2.23Z"/>
      </g>
    </g>
  </g>
</svg>